<svg width="822" height="947" viewBox="0 0 822 947" fill="none" xmlns="http://www.w3.org/2000/svg">
      <path d="M922.329 515.082L795.077 650.918C774.683 672.686 744.385 681.957 715.587 675.24L535.891 633.322C507.093 626.605 484.178 604.917 475.772 576.435L423.33 398.684C414.925 370.198 422.311 339.242 442.705 317.474L569.957 181.637C590.35 159.869 620.649 150.599 649.447 157.316L829.143 199.234C857.94 205.951 880.856 227.638 889.261 256.121L941.7 433.873C950.104 462.358 942.719 493.315 922.329 515.082Z"
            fill="currentcolor" class="theme-shade-5" />

      <path d="M640.627 854.566L568.806 931.232C557.296 943.518 540.195 948.75 523.942 944.959L422.521 921.301C406.268 917.509 393.334 905.269 388.59 889.193L358.991 788.87C354.248 772.793 358.416 755.322 369.927 743.035L441.748 666.369C453.258 654.083 470.359 648.851 486.612 652.642L588.033 676.301C604.286 680.092 617.22 692.332 621.964 708.408L651.561 808.732C656.304 824.809 652.135 842.281 640.627 854.566Z"
            fill="currentcolor" class="theme" />
</svg>