<svg width="1666" height="2401" viewBox="0 0 1666 2401" fill="none" xmlns="http://www.w3.org/2000/svg">
  <path opacity="0.3"
    d="M294.172 356.577C321.945 271.981 392.74 208.628 479.893 190.382L1363.93 5.2944C1451.08 -12.9506 1541.35 16.6824 1600.72 83.0324L2203.04 756.098C2262.41 822.448 2281.88 915.438 2254.11 1000.03L1972.37 1858.18C1944.6 1942.78 1873.81 2006.13 1786.66 2024.38L902.613 2209.47C815.463 2227.71 725.203 2198.08 665.823 2131.73L63.5088 1458.66C4.13379 1392.31 -15.3342 1299.33 12.4388 1214.73L294.172 356.577Z"
    fill="currentColor" class="secondary-tint-10" />
  <path
    d="M1067.19 2174.22L917.043 2237.4C892.983 2247.53 865.463 2244.13 844.843 2228.49L716.163 2130.9C695.543 2115.26 684.963 2089.76 688.403 2064L709.883 1903.22C713.323 1877.46 730.273 1855.35 754.333 1845.23L904.483 1782.04C928.553 1771.92 956.073 1775.32 976.693 1790.95L1105.36 1888.55C1125.98 1904.19 1136.56 1929.69 1133.12 1955.45L1111.64 2116.22C1108.2 2141.99 1091.25 2164.1 1067.19 2174.22Z"
    fill="currentColor" class="theme-shade-5" />
  <path
    d="M1735.94 2224.5L1503.52 2322.16C1466.28 2337.81 1423.67 2332.56 1391.76 2308.39L1192.59 2157.54C1160.67 2133.36 1144.29 2093.93 1149.62 2054.11L1182.86 1805.59C1188.19 1765.77 1214.42 1731.59 1251.66 1715.94L1484.08 1618.28C1521.33 1602.63 1563.93 1607.88 1595.85 1632.05L1795.02 1782.91C1826.94 1807.08 1843.32 1846.51 1837.99 1886.33L1804.74 2134.85C1799.41 2174.67 1773.18 2208.84 1735.94 2224.5Z"
    fill="url(#paint0_linear_7_20)" />
  <path
    d="M1247.02 2367.54L1175.2 2397.72C1163.69 2402.56 1150.53 2400.94 1140.66 2393.47L1079.11 2346.85C1069.25 2339.38 1064.19 2327.2 1065.83 2314.89L1076.11 2238.09C1077.76 2225.78 1085.86 2215.22 1097.37 2210.39L1169.19 2180.2C1180.7 2175.37 1193.87 2176.99 1203.73 2184.46L1265.28 2231.08C1275.15 2238.55 1280.21 2250.73 1278.56 2263.04L1268.28 2339.84C1266.64 2352.15 1258.53 2362.71 1247.02 2367.54Z"
    fill="currentColor" class="theme" />
  <defs>
    <linearGradient id="paint0_linear_7_20" x1="1776.28" y1="1752.37" x2="1211.9" y2="2188.81"
      gradientUnits="userSpaceOnUse">
      <stop stop-color="currentColor" class="secondary-tint-10" />
      <stop offset="1" stop-color="currentColor" class="theme-tint-5" />
    </linearGradient>
  </defs>
</svg>