<svg width="192" height="29" viewBox="0 0 192 29" fill="none" xmlns="http://www.w3.org/2000/svg">
  <g clip-path="url(#clip0_2_220)">
    <path
      d="M54.9791 12.3461C53.7079 10.8562 51.7439 9.09587 48.394 9.09587C42.8842 9.09587 38.7267 13.1859 38.7267 18.8465C38.7267 24.8108 43.1948 28.6778 48.2029 28.6778C51.3234 28.6778 53.598 27.188 54.9456 25.5795H55.0221V28.0278H58.0661V9.70796H55.0221V12.3461H54.9791ZM48.6234 26.0018C44.0788 26.0018 41.8806 22.3672 41.8806 18.8465C41.8806 15.3306 44.0741 11.734 48.6999 11.734C52.3221 11.734 55.2849 14.5999 55.2849 18.9604C55.2897 23.0932 52.0927 26.0018 48.6234 26.0018Z"
      fill="white" />
    <path
      d="M81.6968 9.09587C78.4999 9.09587 76.2682 11.046 75.3412 12.8823C74.5718 10.7423 72.2207 9.09587 69.3343 9.09587C66.945 9.09587 65.0574 10.358 63.8292 11.9997H63.7528V9.70321H60.7087V28.0231H63.7528V17.8549C63.7528 14.0305 65.7168 11.8099 68.7991 11.8099C71.5325 11.8099 73.1908 14.1064 73.1908 17.1241V28.0278H76.273V17.8549C76.273 13.6462 78.7006 11.8099 81.2811 11.8099C84.4016 11.8099 85.711 14.2962 85.711 17.1241V28.0278H88.755V17.3566C88.7455 11.9665 85.8543 9.09587 81.6968 9.09587Z"
      fill="white" />
    <path
      d="M122.846 9.09587C117.298 9.09587 112.983 13.1859 112.983 18.8465C112.983 24.3933 117.26 28.6778 122.846 28.6778C128.547 28.6778 132.705 24.2414 132.705 18.8465C132.705 13.3045 128.581 9.09587 122.846 9.09587ZM122.846 25.9258C119.301 25.9258 116.142 22.9793 116.142 18.8513C116.142 14.7992 118.913 11.8147 122.846 11.8147C126.889 11.8147 129.546 14.989 129.546 18.8513C129.546 22.8654 126.736 25.9258 122.846 25.9258Z"
      fill="white" />
    <path
      d="M144.513 9.09587C138.97 9.09587 134.655 13.1859 134.655 18.8465C134.655 24.3933 138.931 28.6778 144.513 28.6778C150.214 28.6778 154.376 24.2414 154.376 18.8465C154.372 13.3045 150.252 9.09587 144.513 9.09587ZM144.513 25.9258C140.972 25.9258 137.813 22.9793 137.813 18.8513C137.813 14.7992 140.585 11.8147 144.513 11.8147C148.561 11.8147 151.218 14.989 151.218 18.8513C151.218 22.8654 148.403 25.9258 144.513 25.9258Z"
      fill="white" />
    <path
      d="M168.55 17.5607H158.773V9.76964H156.536V28.0278H158.773V19.5962H168.55V28.0278H170.786V9.76964H168.55V17.5607Z"
      fill="white" />
    <path
      d="M185.753 15.1266C185.753 12.6118 184.109 9.77438 179.527 9.77438H174.213V28.0326H176.449V20.3981H178.905L184.458 28.0278H187.292L181.495 20.1846C183.808 19.7291 185.753 17.722 185.753 15.1266ZM176.449 18.3626V11.8052H179.766C182.141 11.8052 183.436 12.9819 183.436 15.1218C183.436 16.8917 182.222 18.3626 179.794 18.3626H176.449Z"
      fill="white" />
    <path
      d="M26.8516 8.89659C23.3058 8.89659 21.4086 10.1065 20.0754 11.4161L19.7122 11.7957V0H16.649V19.302C16.649 25.2426 21.2557 28.9436 26.5457 28.9436C32.371 28.9436 36.7817 24.4929 36.7817 18.7706C36.777 13.4611 32.1798 8.89659 26.8516 8.89659ZM26.5457 26.1773C22.6989 26.1773 19.4446 23.1643 19.4446 19.1312C19.4446 15.0934 22.1876 11.7815 26.6126 11.7815C31.0377 11.7815 33.6469 15.3353 33.6469 19.0553C33.6469 23.1074 30.8896 26.1773 26.5457 26.1773Z"
      fill="white" />
    <path
      d="M101.108 8.89659C97.5622 8.89659 95.665 10.1065 94.3318 11.4161L93.9686 11.7957V1.81728H90.9054V19.3068C90.9054 25.2473 95.5121 28.9483 100.802 28.9483C106.627 28.9483 111.038 24.4976 111.038 18.7754C111.038 13.4611 106.436 8.89659 101.108 8.89659ZM100.802 26.1773C96.9553 26.1773 93.701 23.1643 93.701 19.1312C93.701 15.0934 96.444 11.7815 100.869 11.7815C105.294 11.7815 107.903 15.3353 107.903 19.0553C107.903 23.1074 105.146 26.1773 100.802 26.1773Z"
      fill="white" />
    <path
      d="M10.5084 2.33446C9.72468 1.5136 6.76188 -0.294181 7.12984 0.0996412C10.8859 4.12327 12.8069 9.00097 13.5476 10.3533C12.8691 9.5324 12.071 8.79695 11.1583 7.88119C10.3841 7.10303 9.57654 6.39605 8.80717 5.92631C8.30062 5.61315 8.01868 5.44234 7.50258 5.18137C5.18968 3.99041 2.94846 3.26445 2.0883 3.05094C1.03698 2.78997 0 2.72354 0 2.72354C0 2.72354 3.35466 5.53249 4.78827 7.3213C6.22666 9.1101 7.68895 10.7139 9.30893 11.3687C10.9289 12.0234 11.4928 12.2132 12.7639 12.403C13.863 12.5691 15.2011 12.8158 15.2011 12.8158L13.8439 8.39363C13.0363 6.06866 12.7926 4.73061 10.5084 2.33446Z"
      fill="white" />
    <path
      d="M191.349 10.3817C191.234 10.1208 191.077 9.89775 190.881 9.70796C190.685 9.51816 190.456 9.36633 190.197 9.2572C189.935 9.14806 189.658 9.09587 189.361 9.09587C189.065 9.09587 188.788 9.14806 188.525 9.2572C188.262 9.36633 188.033 9.51342 187.832 9.70796C187.636 9.89775 187.478 10.1255 187.364 10.3817C187.249 10.6427 187.192 10.9226 187.192 11.2216C187.192 11.53 187.249 11.8147 187.364 12.0756C187.478 12.3366 187.636 12.5644 187.832 12.7541C188.028 12.9487 188.262 13.0958 188.525 13.2049C188.788 13.3093 189.065 13.3662 189.361 13.3662C189.658 13.3662 189.935 13.314 190.197 13.2049C190.46 13.1005 190.685 12.9487 190.881 12.7541C191.077 12.5644 191.23 12.3366 191.349 12.0756C191.464 11.8147 191.521 11.53 191.521 11.2216C191.521 10.9226 191.464 10.6427 191.349 10.3817ZM190.991 11.9523C190.9 12.1753 190.776 12.3698 190.618 12.5311C190.46 12.6925 190.274 12.8253 190.059 12.9155C189.844 13.0104 189.61 13.0578 189.361 13.0578C189.108 13.0578 188.874 13.0104 188.654 12.9155C188.439 12.8206 188.248 12.6925 188.09 12.5311C187.932 12.3651 187.808 12.1753 187.717 11.9523C187.627 11.7293 187.584 11.4873 187.584 11.2216C187.584 10.9653 187.627 10.7281 187.717 10.5051C187.808 10.2821 187.932 10.0923 188.09 9.93096C188.248 9.76964 188.439 9.64153 188.654 9.54663C188.869 9.45173 189.108 9.40429 189.361 9.40429C189.61 9.40429 189.844 9.45173 190.059 9.54663C190.274 9.64153 190.46 9.76964 190.618 9.93096C190.776 10.0923 190.9 10.2821 190.991 10.5051C191.082 10.7281 191.125 10.9653 191.125 11.2216C191.129 11.4873 191.082 11.7293 190.991 11.9523Z"
      fill="white" />
    <path
      d="M190.183 11.1931C190.312 11.0887 190.374 10.9226 190.374 10.6996C190.374 10.4576 190.303 10.2821 190.159 10.1635C190.016 10.0448 189.791 9.9879 189.495 9.9879H188.52V12.4884H188.912V11.4161H189.328L190.011 12.4884H190.432L189.71 11.3829C189.901 11.3592 190.059 11.2975 190.183 11.1931ZM189.318 11.0934H188.907V10.3011H189.423C189.49 10.3011 189.557 10.3058 189.624 10.3153C189.691 10.3248 189.748 10.3438 189.801 10.3675C189.853 10.396 189.896 10.4339 189.925 10.4814C189.959 10.5288 189.973 10.5952 189.973 10.6806C189.973 10.7803 189.954 10.8562 189.92 10.9131C189.882 10.9701 189.834 11.008 189.772 11.0365C189.71 11.065 189.638 11.0792 189.562 11.084C189.49 11.0887 189.409 11.0934 189.318 11.0934Z"
      fill="white" />
  </g>
  <defs>
    <clipPath id="clip0_2_220">
      <rect width="192" height="29" fill="white" />
    </clipPath>
  </defs>
</svg>