<svg width="192" height="30" viewBox="0 0 192 30" fill="none" xmlns="http://www.w3.org/2000/svg">
<g clip-path="url(#clip0_40_383)">
<path d="M54.9791 12.8202C53.7079 11.3303 51.7439 9.56999 48.394 9.56999C42.8842 9.56999 38.7267 13.66 38.7267 19.3207C38.7267 25.2849 43.1948 29.152 48.2029 29.152C51.3234 29.152 53.598 27.6621 54.9456 26.0536H55.0221V28.5019H58.0661V10.1821H55.0221V12.8202H54.9791ZM48.6234 26.4759C44.0788 26.4759 41.8806 22.8413 41.8806 19.3207C41.8806 15.8047 44.0741 12.2081 48.6999 12.2081C52.3221 12.2081 55.2849 15.074 55.2849 19.4345C55.2897 23.5673 52.0927 26.4759 48.6234 26.4759Z" fill="#00673B"/>
<path d="M81.6968 9.56999C78.4999 9.56999 76.2682 11.5201 75.3412 13.3564C74.5718 11.2165 72.2207 9.56999 69.3343 9.56999C66.945 9.56999 65.0574 10.8321 63.8292 12.4738H63.7528V10.1773H60.7087V28.4972H63.7528V18.329C63.7528 14.5046 65.7168 12.284 68.7991 12.284C71.5325 12.284 73.1908 14.5805 73.1908 17.5983V28.5019H76.273V18.329C76.273 14.1203 78.7006 12.284 81.2811 12.284C84.4016 12.284 85.711 14.7703 85.711 17.5983V28.5019H88.755V17.8308C88.7455 12.4406 85.8543 9.56999 81.6968 9.56999Z" fill="#00673B"/>
<path d="M122.846 9.56999C117.298 9.56999 112.983 13.66 112.983 19.3207C112.983 24.8674 117.26 29.152 122.846 29.152C128.547 29.152 132.705 24.7155 132.705 19.3207C132.705 13.7787 128.581 9.56999 122.846 9.56999ZM122.846 26.4C119.301 26.4 116.142 23.4534 116.142 19.3254C116.142 15.2733 118.913 12.2888 122.846 12.2888C126.889 12.2888 129.546 15.4631 129.546 19.3254C129.546 23.3395 126.736 26.4 122.846 26.4Z" fill="#00673B"/>
<path d="M144.513 9.56999C138.97 9.56999 134.655 13.66 134.655 19.3207C134.655 24.8674 138.931 29.152 144.513 29.152C150.214 29.152 154.376 24.7155 154.376 19.3207C154.372 13.7787 150.252 9.56999 144.513 9.56999ZM144.513 26.4C140.972 26.4 137.813 23.4534 137.813 19.3254C137.813 15.2733 140.585 12.2888 144.513 12.2888C148.561 12.2888 151.218 15.4631 151.218 19.3254C151.218 23.3395 148.403 26.4 144.513 26.4Z" fill="#00673B"/>
<path d="M168.55 18.0348H158.773V10.2438H156.536V28.5019H158.773V20.0703H168.55V28.5019H170.786V10.2438H168.55V18.0348Z" fill="#00673B"/>
<path d="M185.753 15.6007C185.753 13.0859 184.109 10.2485 179.527 10.2485H174.213V28.5067H176.449V20.8722H178.905L184.458 28.5019H187.292L181.495 20.6587C183.808 20.2032 185.753 18.1961 185.753 15.6007ZM176.449 18.8367V12.2793H179.766C182.141 12.2793 183.436 13.456 183.436 15.5959C183.436 17.3658 182.222 18.8367 179.794 18.8367H176.449Z" fill="#00673B"/>
<path d="M26.8516 9.37071C23.3058 9.37071 21.4086 10.5806 20.0754 11.8902L19.7122 12.2698V0.474121H16.649V19.7762C16.649 25.7167 21.2557 29.4177 26.5457 29.4177C32.371 29.4177 36.7817 24.967 36.7817 19.2447C36.777 13.9352 32.1798 9.37071 26.8516 9.37071ZM26.5457 26.6514C22.6989 26.6514 19.4446 23.6385 19.4446 19.6053C19.4446 15.5675 22.1876 12.2556 26.6126 12.2556C31.0377 12.2556 33.6469 15.8095 33.6469 19.5294C33.6469 23.5815 30.8896 26.6514 26.5457 26.6514Z" fill="#00673B"/>
<path d="M101.108 9.37071C97.5622 9.37071 95.665 10.5806 94.3318 11.8902L93.9686 12.2698V2.2914H90.9054V19.7809C90.9054 25.7214 95.5121 29.4224 100.802 29.4224C106.627 29.4224 111.038 24.9718 111.038 19.2495C111.038 13.9352 106.436 9.37071 101.108 9.37071ZM100.802 26.6514C96.9553 26.6514 93.701 23.6385 93.701 19.6053C93.701 15.5675 96.444 12.2556 100.869 12.2556C105.294 12.2556 107.903 15.8095 107.903 19.5294C107.903 23.5815 105.146 26.6514 100.802 26.6514Z" fill="#00673B"/>
<path d="M10.5084 2.80858C9.72468 1.98773 6.76188 0.17994 7.12984 0.573762C10.8859 4.59739 12.8069 9.47509 13.5476 10.8274C12.8691 10.0065 12.071 9.27107 11.1583 8.35531C10.3841 7.57716 9.57654 6.87017 8.80717 6.40043C8.30062 6.08727 8.01868 5.91646 7.50258 5.65549C5.18968 4.46454 2.94846 3.73858 2.0883 3.52506C1.03698 3.26409 0 3.19766 0 3.19766C0 3.19766 3.35466 6.00661 4.78827 7.79542C6.22666 9.58423 7.68895 11.188 9.30893 11.8428C10.9289 12.4976 11.4928 12.6874 12.7639 12.8771C13.863 13.0432 15.2011 13.29 15.2011 13.29L13.8439 8.86775C13.0363 6.54278 12.7926 5.20473 10.5084 2.80858Z" fill="#00673B"/>
<path d="M191.349 10.8558C191.234 10.5949 191.077 10.3719 190.881 10.1821C190.685 9.99228 190.456 9.84045 190.197 9.73132C189.935 9.62219 189.658 9.56999 189.361 9.56999C189.065 9.56999 188.788 9.62219 188.525 9.73132C188.262 9.84045 188.033 9.98754 187.832 10.1821C187.636 10.3719 187.478 10.5996 187.364 10.8558C187.249 11.1168 187.192 11.3968 187.192 11.6957C187.192 12.0041 187.249 12.2888 187.364 12.5498C187.478 12.8107 187.636 13.0385 187.832 13.2283C188.028 13.4228 188.262 13.5699 188.525 13.679C188.788 13.7834 189.065 13.8404 189.361 13.8404C189.658 13.8404 189.935 13.7882 190.197 13.679C190.46 13.5746 190.685 13.4228 190.881 13.2283C191.077 13.0385 191.23 12.8107 191.349 12.5498C191.464 12.2888 191.521 12.0041 191.521 11.6957C191.521 11.3968 191.464 11.1168 191.349 10.8558ZM190.991 12.4264C190.9 12.6494 190.776 12.8439 190.618 13.0053C190.46 13.1666 190.274 13.2994 190.059 13.3896C189.844 13.4845 189.61 13.5319 189.361 13.5319C189.108 13.5319 188.874 13.4845 188.654 13.3896C188.439 13.2947 188.248 13.1666 188.09 13.0053C187.932 12.8392 187.808 12.6494 187.717 12.4264C187.627 12.2034 187.584 11.9614 187.584 11.6957C187.584 11.4395 187.627 11.2022 187.717 10.9792C187.808 10.7562 187.932 10.5664 188.09 10.4051C188.248 10.2438 188.439 10.1156 188.654 10.0207C188.869 9.92585 189.108 9.87841 189.361 9.87841C189.61 9.87841 189.844 9.92585 190.059 10.0207C190.274 10.1156 190.46 10.2438 190.618 10.4051C190.776 10.5664 190.9 10.7562 190.991 10.9792C191.082 11.2022 191.125 11.4395 191.125 11.6957C191.129 11.9614 191.082 12.2034 190.991 12.4264Z" fill="#00673B"/>
<path d="M190.183 11.6672C190.312 11.5628 190.374 11.3968 190.374 11.1737C190.374 10.9318 190.303 10.7562 190.159 10.6376C190.016 10.519 189.791 10.462 189.495 10.462H188.52V12.9626H188.912V11.8902H189.328L190.011 12.9626H190.432L189.71 11.857C189.901 11.8333 190.059 11.7716 190.183 11.6672ZM189.318 11.5676H188.907V10.7752H189.423C189.49 10.7752 189.557 10.7799 189.624 10.7894C189.691 10.7989 189.748 10.8179 189.801 10.8416C189.853 10.8701 189.896 10.908 189.925 10.9555C189.959 11.0029 189.973 11.0694 189.973 11.1548C189.973 11.2544 189.954 11.3303 189.92 11.3873C189.882 11.4442 189.834 11.4822 189.772 11.5106C189.71 11.5391 189.638 11.5533 189.562 11.5581C189.49 11.5628 189.409 11.5676 189.318 11.5676Z" fill="#00673B"/>
</g>
<defs>
<clipPath id="clip0_40_383">
<rect width="192" height="29" fill="white" transform="translate(0 0.474121)"/>
</clipPath>
</defs>
</svg>
