<svg width="36" height="40" viewBox="0 0 36 40" fill="none" xmlns="http://www.w3.org/2000/svg">
<path fill-rule="evenodd" clip-rule="evenodd" d="M22.3613 8.06667C22.3613 7.42667 22.7916 7 23.437 7C24.0824 7 24.5126 7.42667 24.5126 8.06667V12.3333C24.5126 12.9733 24.0824 13.4 23.437 13.4C22.7916 13.4 22.3613 12.9733 22.3613 12.3333V8.06667ZM11.605 8.06667C11.605 7.42667 12.0353 7 12.6807 7C13.326 7 13.7563 7.42667 13.7563 8.06667V12.3333C13.7563 12.9733 13.326 13.4 12.6807 13.4C12.0353 13.4 11.605 12.9733 11.605 12.3333V8.06667ZM20.2101 9.13333C20.8555 9.13333 21.2857 9.56 21.2857 10.2C21.2857 10.84 20.8555 11.2667 20.2101 11.2667H15.9076C15.2622 11.2667 14.8319 10.84 14.8319 10.2C14.8319 9.56 15.2622 9.13333 15.9076 9.13333H20.2101ZM16.9832 23.8533C16.6605 24.0667 16.4454 24.3867 16.4454 24.6C16.4454 24.8133 16.6605 25.1333 16.9832 25.3467V23.8533ZM19.1345 29.6133C19.4571 29.4 19.6723 29.08 19.6723 28.8667C19.6723 28.6533 19.4571 28.3333 19.1345 28.12V29.6133ZM16.9832 29.6133V27.5867C15.4773 27.16 14.2941 25.9867 14.2941 24.4933C14.2941 23 15.4773 21.8267 16.9832 21.4V20.8667C16.9832 20.2267 17.4134 19.8 18.0588 19.8C18.7042 19.8 19.1345 20.2267 19.1345 20.8667V21.5067C20.6403 21.9333 21.8235 23.1067 21.8235 24.6C21.8235 25.24 21.3933 25.6667 20.7479 25.6667C20.1025 25.6667 19.6723 25.24 19.6723 24.6C19.6723 24.28 19.4571 24.0667 19.1345 23.8533V25.88C20.6403 26.3067 21.8235 27.48 21.8235 28.9733C21.8235 30.4667 20.6403 31.5333 19.1345 31.96V32.6C19.1345 33.24 18.7042 33.6667 18.0588 33.6667C17.4134 33.6667 16.9832 33.24 16.9832 32.6V31.96C15.4773 31.5333 14.2941 30.36 14.2941 28.8667C14.2941 28.2267 14.7244 27.8 15.3697 27.8C16.0151 27.8 16.4454 28.2267 16.4454 28.8667C16.4454 29.1867 16.6605 29.4 16.9832 29.6133ZM5.15126 17.6667V36.8667H30.9664V17.6667H5.15126ZM5.15126 15.5333H30.9664V11.2667H26.6639C26.0185 11.2667 25.5882 10.84 25.5882 10.2C25.5882 9.56 26.0185 9.13333 26.6639 9.13333H32.042C32.6874 9.13333 33.1176 9.56 33.1176 10.2V37.9333C33.1176 38.5733 32.6874 39 32.042 39H4.07563C3.43025 39 3 38.5733 3 37.9333V10.2C3 9.56 3.43025 9.13333 4.07563 9.13333H9.45378C10.0992 9.13333 10.5294 9.56 10.5294 10.2C10.5294 10.84 10.0992 11.2667 9.45378 11.2667H5.15126V15.5333Z" fill="#626467"/>
</svg>
