<svg width="26" height="32" viewBox="0 0 26 32" fill="none" xmlns="http://www.w3.org/2000/svg">
<g clip-path="url(#clip0_7097_3107)">
<path d="M18.6296 29.0665L12.8043 25.5736L12.6927 25.5401H10.0367C9.91396 25.5401 9.81352 25.4396 9.81352 25.3169V22.6386C9.81352 22.6386 9.80236 22.5381 9.76888 22.5046L6.46562 18.0966V17.0029L4.26717 13.7108L4.23369 13.5881V12.4721L2.06872 10.3071C2.06872 10.3071 2.00176 10.2067 2.00176 10.1509V6.99273C2.00176 6.93693 1.97944 6.88114 1.9348 6.8365L1.06435 5.96604C1.00855 5.91025 0.986234 5.82097 1.00855 5.74285L1.9906 2.7967V2.72975L2.00176 1.22319C2.00176 1.10044 2.1022 1 2.22495 1H10.7063C10.829 1 10.9295 1.10044 10.9295 1.22319V10.6196C10.9295 10.6754 10.9518 10.7312 10.9964 10.7759L25.3701 25.1495C25.3701 25.1495 25.437 25.2499 25.437 25.3057V29.8812C25.437 29.9928 25.3589 30.0821 25.2473 30.1044L18.9979 30.9971C18.864 31.0195 18.7412 30.9079 18.7412 30.7739V29.2562C18.7412 29.1781 18.6966 29.1 18.6296 29.0665Z" stroke="currentcolor" stroke-width="2" stroke-linecap="round" stroke-linejoin="round"/>
</g>
<defs>
<clipPath id="clip0_7097_3107">
<rect width="26" height="32" fill="white"/>
</clipPath>
</defs>
</svg>
