<svg width="42" height="34" viewBox="0 0 42 34" fill="none" xmlns="http://www.w3.org/2000/svg">
<path d="M35.36 16.13C31.98 15.48 29.75 14.5 28.36 13.05C28.06 12.74 27.49 12.74 27.19 13.05C25.79 14.51 23.57 15.48 20.19 16.13C19.81 16.2 19.53 16.54 19.53 16.93V24.62C19.53 27.7 21.24 30.45 24 31.81L27.42 33.49C27.53 33.55 27.66 33.57 27.78 33.57C27.9 33.57 28.03 33.54 28.14 33.49L31.56 31.81C34.32 30.45 36.03 27.7 36.03 24.62V16.93C36.03 16.54 35.75 16.21 35.37 16.13H35.36ZM34.4 17.59V24.61C34.4 27.06 33.03 29.26 30.83 30.34L27.77 31.85L24.71 30.34C22.51 29.26 21.14 27.06 21.14 24.61V17.59C24.12 16.95 26.24 16.04 27.76 14.72C29.29 16.03 31.41 16.95 34.39 17.59H34.4Z" fill="currentcolor"/>
<path d="M25.22 21.02V21.21H25.11C24.38 21.21 23.78 21.8 23.78 22.53V26.5C23.78 27.23 24.37 27.82 25.11 27.82H30.42C31.15 27.82 31.75 27.23 31.75 26.5V22.53C31.75 21.8 31.16 21.21 30.42 21.21H30.31V21.02C30.31 19.62 29.17 18.48 27.77 18.48C26.37 18.48 25.23 19.62 25.23 21.02H25.22ZM25.41 26.2V22.83H30.13V26.2H25.41ZM28.69 21.2H26.84V21.01C26.84 20.5 27.25 20.09 27.76 20.09C28.27 20.09 28.68 20.5 28.68 21.01V21.2H28.69Z" fill="currentcolor"/>
<path d="M32.33 6.43C32.18 6.43 32.04 6.43 31.88 6.44C30.29 2.52 26.55 0 22.31 0C18.65 0 15.26 1.95 13.4 5.09C10.46 4.73 7.94999 6.79 7.54999 9.59C3.78999 10.11 0.98999 13.31 0.98999 17.13C0.98999 21.33 4.40999 24.75 8.60999 24.75H17.75C18.2 24.75 18.56 24.39 18.56 23.94C18.56 23.49 18.2 23.13 17.75 23.13H8.61999C5.30999 23.13 2.61999 20.44 2.61999 17.13C2.61999 13.82 5.13999 11.28 8.35999 11.14C8.79999 11.12 9.13999 10.77 9.13999 10.31C9.13999 8.3 10.79 6.66 12.8 6.66C13.08 6.66 13.37 6.7 13.66 6.77C14.03 6.86 14.4 6.68 14.57 6.35C16.07 3.42 19.04 1.61 22.32 1.61C26.06 1.61 29.38 3.99 30.58 7.54C30.7 7.91 31.06 8.13 31.44 8.09C31.75 8.05 32.05 8.04 32.34 8.04C36.5 8.04 39.89 11.42 39.89 15.59C39.89 17.83 38.9 19.94 37.18 21.38C37.01 21.52 36.91 21.71 36.89 21.93C36.87 22.15 36.94 22.36 37.08 22.52C37.37 22.86 37.88 22.91 38.22 22.62C40.31 20.87 41.51 18.31 41.51 15.58C41.51 10.52 37.4 6.41 32.34 6.41L32.33 6.43Z" fill="currentcolor"/>
</svg>
