<svg width="32" height="32" viewBox="0 0 32 32" fill="none" xmlns="http://www.w3.org/2000/svg">
<circle cx="16" cy="16" r="15" stroke="currentcolor" stroke-width="2"/>
<path fill-rule="evenodd" clip-rule="evenodd" d="M16.0002 3L18.3613 12.7126L22.6157 9.74177L19.8062 13.765L29 16L20.2258 18.133L22.9205 21.9918L18.4606 18.8775L15.9998 29L13.6352 19.2729L9.74163 21.9918L12.3402 18.2706L3 16L12.4994 13.6908L9.74177 9.74177L13.6909 12.4995L16.0002 3ZM16 18C17.1046 18 18 17.1046 18 16C18 14.8954 17.1046 14 16 14C14.8954 14 14 14.8954 14 16C14 17.1046 14.8954 18 16 18Z" fill="currentcolor"/>
</svg>
