<svg width="50" height="51" viewBox="0 0 50 51" fill="none" xmlns="http://www.w3.org/2000/svg">
  <path
    d="M49.6201 11.5598C49.6201 11.5598 49.6201 11.5398 49.6101 11.5298L41.2617 0.389766C41.0818 0.149766 40.7918 0.00976562 40.4919 0.00976562H9.47811C9.17817 0.00976562 8.88823 0.149766 8.70826 0.389766L0.349936 11.5398C0.349936 11.5398 0.349942 11.5598 0.339944 11.5698C0.129986 11.8598 0 12.2098 0 12.5998V48.2698C0 49.2298 0.779849 50.0098 1.73966 50.0098H48.2603C49.2201 50.0098 50 49.2298 50 48.2698V12.5998C50 12.2098 49.86 11.8498 49.6401 11.5598H49.6201ZM27.4045 1.92977L30.5939 10.8598H19.3661L22.5555 1.92977H27.4045ZM30.9938 12.7898V19.5798L29.2841 18.7298C29.0342 18.6098 28.7542 18.5998 28.4943 18.6998L24.975 20.1098L21.4557 18.6998C21.2058 18.5998 20.9158 18.6098 20.6659 18.7298L18.9562 19.5798V12.7898H30.9838H30.9938ZM48.0504 48.0898H1.90962V12.7898H11.7976C12.3275 12.7898 12.7575 12.3598 12.7575 11.8298C12.7575 11.2998 12.3275 10.8698 11.7976 10.8698H3.24935L9.94802 1.93977H20.5059L17.0866 11.5098C17.0466 11.6098 17.0266 11.7198 17.0266 11.8298V21.1398C17.0266 21.4698 17.1966 21.7798 17.4865 21.9598C17.7664 22.1298 18.1264 22.1498 18.4263 21.9998L21.1458 20.6398L24.6251 22.0298C24.7351 22.0798 24.865 22.0998 24.985 22.0998C25.105 22.0998 25.225 22.0798 25.3449 22.0298L28.8242 20.6398L31.5437 21.9998C31.8436 22.1498 32.1936 22.1298 32.4835 21.9598C32.7634 21.7798 32.9434 21.4798 32.9434 21.1398V11.8298C32.9434 11.7198 32.9234 11.6098 32.8834 11.5098L29.4641 1.93977H40.022L46.7207 10.8698H38.1824C37.6525 10.8698 37.2226 11.2998 37.2226 11.8298C37.2226 12.3598 37.6525 12.7898 38.1824 12.7898H48.0704V48.0898H48.0504Z"
    fill="currentColor" />
  <path
    d="M26.7446 33.3502L25.6648 33.1402V29.3902C26.2247 29.5002 26.7846 29.6902 27.3745 29.9602C27.9544 30.2302 28.5642 30.5802 29.2041 31.0202L30.3839 28.5502C29.694 28.0302 28.9442 27.6202 28.1343 27.3002C27.3245 26.9902 26.5047 26.7802 25.6748 26.6902V24.6602H24.3151V26.6202C23.3453 26.6502 22.4855 26.8602 21.7556 27.2602C21.0358 27.6502 20.4859 28.1902 20.0859 28.8902C19.706 29.5802 19.5161 30.4002 19.5161 31.3402C19.5161 32.5602 19.796 33.5102 20.3659 34.1702C20.9358 34.8302 21.8856 35.3002 23.2053 35.5802L24.3051 35.8402V39.6302C22.9354 39.3802 21.7156 38.6602 20.6458 37.4902L19.2061 39.7702C19.866 40.4902 20.6358 41.0702 21.5057 41.5102C22.3855 41.9302 23.3153 42.1902 24.3051 42.2902V44.3202H25.6648V42.3402C26.7246 42.2802 27.6244 42.0402 28.3843 41.6302C29.1441 41.2202 29.724 40.6702 30.1339 39.9802C30.5538 39.2702 30.7638 38.4602 30.7638 37.5302C30.7638 36.3702 30.4439 35.4602 29.814 34.8202C29.1941 34.1602 28.1643 33.6702 26.7446 33.3602V33.3502ZM24.3051 32.9502L24.0451 32.9302C23.5552 32.8402 23.1753 32.7202 22.8854 32.5802C22.6054 32.4402 22.3955 32.2502 22.2555 32.0102C22.1355 31.7602 22.0755 31.4402 22.0755 31.0702C22.0755 30.5402 22.2755 30.1102 22.6854 29.8002C23.1053 29.4902 23.6452 29.3102 24.3051 29.2802V32.9502ZM27.4145 39.1502C26.9845 39.4802 26.3947 39.6802 25.6648 39.7402V35.9702L25.9448 36.0402C26.5147 36.1302 26.9546 36.2502 27.2645 36.3902C27.5744 36.5302 27.7844 36.7102 27.8944 36.9302C28.0144 37.1502 28.0743 37.4402 28.0743 37.8002C28.0743 38.3502 27.8544 38.8002 27.4045 39.1402L27.4145 39.1502Z"
    fill="currentColor" />
</svg>