<svg width="41" height="41" viewBox="0 0 41 41" fill="none" xmlns="http://www.w3.org/2000/svg">
<path d="M6.41 12.8C7.83 12.8 9.21 12.32 10.33 11.45L11.25 12.37C11.55 12.67 12.08 12.67 12.38 12.37C12.53 12.22 12.61 12.02 12.61 11.8C12.61 11.58 12.53 11.38 12.38 11.23L11.46 10.31C12.33 9.19 12.8 7.80999 12.8 6.39999C12.8 2.86999 9.93 0 6.4 0C2.87 0 0 2.86999 0 6.39999C0 9.92999 2.87 12.8 6.4 12.8H6.41ZM6.41 4.5C7 4.5 7.48 4.98001 7.48 5.57001C7.48 6.16001 7 6.64001 6.41 6.64001C5.82 6.64001 5.34 6.16001 5.34 5.57001C5.34 4.98001 5.82 4.5 6.41 4.5ZM5.51 8.25H7.32C8.39 8.25 9.3 8.93001 9.61 9.95001C8.72 10.75 7.59 11.2 6.41 11.2C5.23 11.2 4.1 10.76 3.21 9.95999C3.52 8.94999 4.45 8.25 5.51 8.25ZM9.09 5.57001C9.09 4.09001 7.89 2.89001 6.41 2.89001C4.93 2.89001 3.73 4.09001 3.73 5.57001C3.73 6.04001 3.85 6.5 4.09 6.91C3.27 7.22 2.58 7.77 2.12 8.5C1.78 7.82 1.61 7.11999 1.61 6.39999C1.61 3.75999 3.76 1.60001 6.41 1.60001C9.06 1.60001 11.21 3.74999 11.21 6.39999C11.21 7.11999 11.04 7.82 10.7 8.5C10.24 7.77 9.55 7.21 8.73 6.91C8.97 6.5 9.09 6.04001 9.09 5.57001Z" fill="currentcolor"/>
<path d="M33.86 27.46C32.43 27.46 31.08 27.92 29.95 28.8L28.97 27.82C28.67 27.52 28.14 27.52 27.84 27.82C27.69 27.97 27.61 28.17 27.61 28.39C27.61 28.61 27.69 28.81 27.84 28.96L28.82 29.94C27.93 31.07 27.47 32.43 27.47 33.86C27.47 37.39 30.34 40.26 33.87 40.26C37.4 40.26 40.27 37.39 40.27 33.86C40.27 30.33 37.4 27.46 33.87 27.46H33.86ZM34.93 33.03C34.93 33.62 34.45 34.1 33.86 34.1C33.27 34.1 32.79 33.62 32.79 33.03C32.79 32.44 33.27 31.96 33.86 31.96C34.45 31.96 34.93 32.44 34.93 33.03ZM32.95 35.71H34.76C35.81 35.71 36.75 36.41 37.06 37.42C36.17 38.22 35.04 38.66 33.86 38.66C32.68 38.66 31.55 38.22 30.66 37.42C30.97 36.41 31.9 35.71 32.96 35.71H32.95ZM36.53 33.03C36.53 31.55 35.33 30.35 33.85 30.35C32.37 30.35 31.17 31.55 31.17 33.03C31.17 33.5 31.29 33.96 31.53 34.37C30.71 34.68 30.02 35.23 29.56 35.96C29.22 35.28 29.05 34.58 29.05 33.86C29.05 31.22 31.2 29.06 33.85 29.06C36.5 29.06 38.65 31.21 38.65 33.86C38.65 34.58 38.48 35.28 38.14 35.96C37.68 35.23 36.99 34.67 36.17 34.37C36.41 33.96 36.53 33.5 36.53 33.03Z" fill="currentcolor"/>
<path d="M20.1399 10.37C14.7599 10.37 10.3799 14.75 10.3799 20.13C10.3799 25.51 14.7599 29.89 20.1399 29.89C25.5199 29.89 29.8999 25.51 29.8999 20.13C29.8999 14.75 25.5199 10.37 20.1399 10.37ZM20.1399 16.6C21.3499 16.6 22.3399 17.59 22.3399 18.8C22.3399 20.01 21.3499 21 20.1399 21C18.9299 21 17.9399 20.01 17.9399 18.8C17.9399 17.59 18.9299 16.6 20.1399 16.6ZM18.6899 22.6H21.5799C23.6299 22.6 25.3499 23.99 25.7999 25.99C24.2699 27.47 22.2599 28.29 20.1299 28.29C17.9999 28.29 15.9899 27.47 14.4599 25.99C14.9099 23.99 16.6399 22.6 18.6799 22.6H18.6899ZM23.9399 18.8C23.9399 16.7 22.2299 15 20.1399 15C18.0499 15 16.3399 16.71 16.3399 18.8C16.3399 19.67 16.6499 20.52 17.2099 21.2C15.4499 21.65 14.0099 22.88 13.2799 24.53C12.4299 23.21 11.9799 21.7 11.9799 20.13C11.9799 15.63 15.6399 11.97 20.1399 11.97C24.6399 11.97 28.2999 15.63 28.2999 20.13C28.2999 21.7 27.8499 23.22 26.9999 24.53C26.2699 22.87 24.8199 21.65 23.0699 21.2C23.6299 20.52 23.9399 19.67 23.9399 18.8Z" fill="currentcolor"/>
<path d="M27.84 11.23C27.69 11.38 27.61 11.58 27.61 11.8C27.61 12.02 27.69 12.22 27.84 12.37C28.14 12.67 28.67 12.67 28.97 12.37L29.91 11.43C31.03 12.31 32.43 12.8 33.86 12.8C37.39 12.8 40.26 9.92999 40.26 6.39999C40.26 2.86999 37.39 0 33.86 0C30.33 0 27.46 2.86999 27.46 6.39999C27.46 7.81999 27.92 9.16 28.78 10.28L27.83 11.23H27.84ZM34.94 5.57001C34.94 6.16001 34.46 6.64001 33.87 6.64001C33.28 6.64001 32.8 6.16001 32.8 5.57001C32.8 4.98001 33.28 4.5 33.87 4.5C34.46 4.5 34.94 4.98001 34.94 5.57001ZM32.96 8.25H34.77C35.82 8.25 36.76 8.94999 37.07 9.95999C36.18 10.76 35.05 11.2 33.87 11.2C32.69 11.2 31.56 10.76 30.67 9.95999C30.98 8.94999 31.91 8.25 32.97 8.25H32.96ZM36.54 5.57001C36.54 4.09001 35.34 2.89001 33.86 2.89001C32.38 2.89001 31.18 4.09001 31.18 5.57001C31.18 6.04001 31.3 6.5 31.54 6.91C30.72 7.22 30.03 7.77 29.57 8.5C29.23 7.82 29.06 7.11999 29.06 6.39999C29.06 3.75999 31.21 1.60001 33.86 1.60001C36.51 1.60001 38.66 3.74999 38.66 6.39999C38.66 7.11999 38.49 7.82 38.15 8.5C37.69 7.77 37 7.21 36.18 6.91C36.42 6.5 36.54 6.04001 36.54 5.57001Z" fill="currentcolor"/>
<path d="M12.38 28.95C12.53 28.8 12.61 28.6 12.61 28.38C12.61 28.16 12.53 27.96 12.38 27.81C12.08 27.51 11.55 27.51 11.25 27.81L10.29 28.77C9.16001 27.9 7.82001 27.45 6.41001 27.45C2.88001 27.45 0.0100098 30.32 0.0100098 33.85C0.0100098 37.38 2.88001 40.25 6.41001 40.25C9.94001 40.25 12.81 37.38 12.81 33.85C12.81 32.42 12.32 31.02 11.44 29.9L12.39 28.95H12.38ZM6.41001 31.95C7.00001 31.95 7.48001 32.43 7.48001 33.02C7.48001 33.61 7.00001 34.09 6.41001 34.09C5.82001 34.09 5.34001 33.61 5.34001 33.02C5.34001 32.43 5.82001 31.95 6.41001 31.95ZM5.51001 35.7H7.32001C8.37001 35.7 9.31001 36.4 9.62001 37.41C8.73001 38.21 7.60001 38.65 6.42001 38.65C5.24001 38.65 4.11001 38.21 3.22001 37.41C3.53001 36.4 4.46001 35.7 5.52001 35.7H5.51001ZM8.73001 34.36C8.97001 33.95 9.09001 33.49 9.09001 33.02C9.09001 31.54 7.89001 30.34 6.41001 30.34C4.93001 30.34 3.73001 31.54 3.73001 33.02C3.73001 33.49 3.85001 33.95 4.09001 34.36C3.27001 34.67 2.58001 35.22 2.12001 35.95C1.78001 35.27 1.61001 34.57 1.61001 33.85C1.61001 31.21 3.76001 29.05 6.41001 29.05C7.65001 29.05 8.83001 29.53 9.72001 30.39L9.75001 30.44C9.75001 30.44 9.80001 30.48 9.81001 30.48C10.71 31.39 11.2 32.58 11.2 33.85C11.2 34.57 11.03 35.27 10.69 35.95C10.23 35.22 9.54001 34.66 8.72001 34.36H8.73001Z" fill="currentcolor"/>
</svg>
