<svg width="50" height="51" viewBox="0 0 50 51" fill="none" xmlns="http://www.w3.org/2000/svg">
  <path
    d="M49.1568 38.5598L43.7768 37.7898V25.4498C43.7768 24.9098 43.3368 24.4698 42.7968 24.4698H34.2668C33.7268 24.4698 33.2868 24.9098 33.2868 25.4498V34.9398L29.7968 33.1898V16.7098C29.7968 16.1698 29.3568 15.7298 28.8168 15.7298H20.2868C19.7468 15.7298 19.3068 16.1698 19.3068 16.7098V26.4698L15.8168 22.5198V0.989766C15.8168 0.449766 15.3768 0.00976562 14.8368 0.00976562H6.31677C5.77677 0.00976562 5.33677 0.449766 5.33677 0.989766V10.6698L1.70677 6.55977C1.34677 6.14977 0.726774 6.11977 0.326774 6.47977C-0.0732261 6.83977 -0.113226 7.45977 0.246774 7.85977L5.34677 13.6298V48.0498H3.59677C3.05677 48.0498 2.61677 48.4898 2.61677 49.0298C2.61677 49.5698 3.05677 50.0098 3.59677 50.0098H45.5268C46.0668 50.0098 46.5068 49.5698 46.5068 49.0298C46.5068 48.4898 46.0668 48.0498 45.5268 48.0498H43.7768V39.7598L48.8768 40.4898C48.8768 40.4898 48.9668 40.4898 49.0168 40.4898C49.4968 40.4898 49.9168 40.1398 49.9868 39.6498C50.0668 39.1098 49.6868 38.6198 49.1568 38.5398V38.5598ZM35.2468 26.4298H41.8168V37.5198L37.0768 36.8398L35.2468 35.9198V26.4298ZM33.2868 37.1298V48.0598H29.7968V35.3898L33.2868 37.1398V37.1298ZM21.2668 17.6898H27.8368V32.2098L21.6668 29.1198L21.2668 28.6698V17.6798V17.6898ZM19.3068 29.4198V48.0498H15.8168V25.4698L19.3068 29.4198ZM7.29677 1.96977H13.8668V20.3098L7.29677 12.8798V1.96977ZM7.29677 48.0598V15.8298L13.8668 23.2598V48.0598H7.29677ZM21.2768 48.0598V31.1198L27.8468 34.3998V48.0498H21.2768V48.0598ZM41.8168 48.0598H35.2468V38.1098L36.4868 38.7298L41.8168 39.4898V48.0598Z"
    fill="currentColor" />
</svg>