<svg width="20" height="20" fill="none" xmlns="http://www.w3.org/2000/svg"><path fill-rule="evenodd" clip-rule="evenodd" d="M15.237 0L5.563 9.674v4.763h4.763L20 4.763 15.237 0zm2.71 4.763l-1.296 1.296-2.71-2.71 1.296-1.297 2.71 2.71zm-7.1 7.101l4.778-4.778-2.71-2.711-4.78 4.779 2.712 2.71zM9.82 12.89l-2.71-2.71-.096.095v2.711h2.71l.096-.096z" fill="#73C41D"/><path d="M.726 2.102c-.401 0-.726.325-.726.726v16.446c0 .401.325.726.726.726h16.446c.4 0 .726-.325.726-.726V12.02a.726.726 0 00-1.451 0v6.53H1.45V3.553h6.53a.726.726 0 100-1.45H.726z" fill="#73C41D"/></svg>