<svg width="28" height="30" viewBox="0 0 28 30" fill="none" xmlns="http://www.w3.org/2000/svg">
<g clip-path="url(#clip0_1100_1060)">
<path d="M14.008 6.7379C9.88097 6.7379 6.5152 10.1352 6.5152 14.319C6.5152 16.6055 7.4528 17.9595 8.36637 19.273C9.27192 20.5703 10.2015 21.9163 10.3378 24.373C10.3618 24.8838 10.7785 25.2811 11.2834 25.2811H16.7247C17.2296 25.2811 17.6383 24.8838 17.6703 24.373C17.7985 21.9163 18.7361 20.5703 19.6417 19.273C20.5473 17.9676 21.4929 16.6136 21.4929 14.319C21.4929 10.1433 18.1351 6.7379 14.0161 6.7379H14.008ZM20.1866 14.319C20.1866 16.192 19.4414 17.2703 18.5759 18.5109C17.6543 19.8406 16.6125 21.3325 16.3961 23.9595H11.6199C11.4036 21.3406 10.3618 19.8406 9.44021 18.5109C8.57473 17.2622 7.82945 16.192 7.82945 14.319C7.82945 10.8649 10.6102 8.05952 14.0241 8.05952C17.4379 8.05952 20.2027 10.8649 20.2027 14.319H20.1866Z" fill="currentcolor"/>
<path d="M16.6366 26.4163H11.3715C11.0109 26.4163 10.7224 26.7082 10.7224 27.073C10.7224 27.4379 11.0109 27.7298 11.3715 27.7298H16.6366C16.9972 27.7298 17.2857 27.4379 17.2857 27.073C17.2857 26.7082 16.9972 26.4163 16.6366 26.4163Z" fill="currentcolor"/>
<path d="M15.3703 28.6866H12.6296C12.269 28.6866 11.9805 28.9784 11.9805 29.3433C11.9805 29.7082 12.269 30.0001 12.6296 30.0001H15.3703C15.731 30.0001 16.0195 29.7082 16.0195 29.3433C16.0195 28.9784 15.731 28.6866 15.3703 28.6866Z" fill="currentcolor"/>
<path d="M27.3429 13.5082H23.7207C23.5444 13.5082 23.3841 13.5811 23.2639 13.7028C23.1437 13.8244 23.0796 13.9947 23.0796 14.1811C23.0796 14.5379 23.3761 14.8217 23.7207 14.8217H27.3589C27.5352 14.8217 27.7115 14.7487 27.8317 14.6109C27.9519 14.473 28.0161 14.3028 28.008 14.1163C27.984 13.7676 27.6955 13.5001 27.3429 13.5001V13.5082Z" fill="currentcolor"/>
<path d="M20.3629 7.75952C20.4911 7.88114 20.6514 7.9379 20.8117 7.9379C20.9719 7.9379 21.1402 7.87304 21.2604 7.75141L23.905 5.07574C24.0332 4.94601 24.0973 4.76763 24.0973 4.58925C24.0973 4.40276 24.0091 4.2406 23.8729 4.11898C23.6165 3.89195 23.2238 3.90817 22.9754 4.15952L20.3389 6.82709C20.2186 6.94871 20.1465 7.11087 20.1545 7.28925C20.1545 7.46763 20.2267 7.62979 20.3469 7.75141L20.3629 7.76763V7.75952Z" fill="currentcolor"/>
<path d="M14 5.13249H14.008C14.3606 5.13249 14.6491 4.8406 14.6491 4.48384V0.673029C14.6491 0.316272 14.3847 0.0243806 14.0401 5.62628e-05C13.8558 -0.00805185 13.6875 0.0487049 13.5513 0.178435C13.423 0.300056 13.3429 0.478435 13.3429 0.656813V4.48384C13.3429 4.8406 13.6314 5.13249 13.984 5.13249H14Z" fill="currentcolor"/>
<path d="M6.74757 7.75952C6.86777 7.88114 7.03606 7.94601 7.19634 7.94601C7.35661 7.94601 7.5249 7.88114 7.66114 7.75141C7.78936 7.62979 7.85346 7.45952 7.85346 7.28925C7.85346 7.11087 7.78935 6.94871 7.66915 6.82709L5.03263 4.15952C4.7842 3.90817 4.39153 3.89195 4.13509 4.11898C3.99886 4.2406 3.91872 4.41087 3.91071 4.58925C3.91071 4.76763 3.97482 4.94601 4.10304 5.07574L6.74757 7.75141V7.75952Z" fill="currentcolor"/>
<path d="M4.93644 14.1811V14.1649C4.93644 13.9865 4.87233 13.8244 4.75213 13.6947C4.63192 13.573 4.47164 13.5001 4.29534 13.5001H0.665119C0.312515 13.5001 0.0240202 13.7676 -2.10123e-05 14.1163C-0.0160485 14.3028 0.0480614 14.473 0.176281 14.6109C0.296487 14.7406 0.472789 14.8217 0.649092 14.8217H4.28733C4.63993 14.8217 4.92843 14.5298 4.92843 14.1811H4.93644Z" fill="currentcolor"/>
<path d="M7.53291 20.8703C7.42874 20.7163 7.25243 20.6109 7.06812 20.5946C6.87579 20.5784 6.68346 20.6433 6.54723 20.7811L4.10304 23.2541C3.8466 23.5136 3.8466 23.9271 4.10304 24.1865C4.22324 24.3082 4.39153 24.3811 4.55982 24.3811C4.72811 24.3811 4.8964 24.3163 5.0166 24.1865L7.46079 21.7136C7.67716 21.4947 7.70922 21.146 7.54894 20.9028L7.53291 20.8703Z" fill="currentcolor"/>
<path d="M21.4608 20.7811C21.3245 20.6433 21.1322 20.5784 20.9399 20.5946C20.7475 20.6109 20.5712 20.7163 20.459 20.8947C20.2908 21.1541 20.3228 21.4947 20.5392 21.7217L22.9834 24.1946C23.1036 24.3163 23.2719 24.3892 23.4402 24.3892C23.6084 24.3892 23.7767 24.3244 23.8969 24.1946C24.1534 23.9352 24.1534 23.5217 23.8969 23.2622L21.4528 20.7892L21.4608 20.7811Z" fill="currentcolor"/>
<path d="M14.008 8.92709C11.075 8.92709 8.68689 11.3433 8.68689 14.3109C8.68689 14.6514 8.95936 14.919 9.28792 14.919C9.61648 14.919 9.89696 14.6433 9.89696 14.3109C9.89696 12.0163 11.7401 10.1514 14.008 10.1514C14.3446 10.1514 14.609 9.87574 14.609 9.54331C14.609 9.21088 14.3366 8.9352 14.008 8.9352V8.92709Z" fill="currentcolor"/>
</g>
<defs>
<clipPath id="clip0_1100_1060">
<rect width="28" height="30" fill="white"/>
</clipPath>
</defs>
</svg>
