<svg width="36" height="40" viewBox="0 0 36 40" fill="none" xmlns="http://www.w3.org/2000/svg">
<path d="M35.7158 19.7276L28.1368 12.2793C27.9474 12.0931 27.7579 12 27.4737 12H8.52632C8.24211 12 8.05262 12.0931 7.86315 12.2793L0.284199 19.7276C0.0947253 19.9138 0 20.1931 0 20.5655V20.8448C0 22.4276 0.757895 23.9172 1.89474 24.8483V38.069C1.89474 38.6276 2.27368 39 2.84211 39H33.1579C33.7263 39 34.1053 38.6276 34.1053 38.069V24.8483C35.2421 23.9172 36 22.4276 36 20.8448V20.5655C36 20.2862 36 20.0069 35.7158 19.7276ZM27.0947 13.8621L32.7789 19.4483H27.0947L24.2526 13.8621H27.0947ZM18.9474 13.8621H22.1684L25.0105 19.4483H18.9474V13.8621ZM25.5789 21.3103C25.3895 22.8931 23.9684 24.1034 22.2632 24.1034C20.5579 24.1034 19.2316 22.8931 18.9474 21.3103H25.5789ZM18 23.8241C18.9474 25.1276 20.4632 25.9655 22.2632 25.9655C24.0632 25.9655 25.5789 25.1276 26.5263 23.8241C27.4737 25.1276 28.9895 25.9655 30.7895 25.9655C31.2632 25.9655 31.7368 25.8724 32.2105 25.7793V30.8534H3.78947V25.7793C4.26316 25.8724 4.73684 25.9655 5.21053 25.9655C7.01053 25.9655 8.52632 25.1276 9.47368 23.8241C10.4211 25.1276 11.9368 25.9655 13.7368 25.9655C15.5368 25.9655 17.0526 25.1276 18 23.8241ZM10.4211 21.3103H17.0526C16.8632 22.8931 15.4421 24.1034 13.7368 24.1034C12.0316 24.1034 10.7053 22.8931 10.4211 21.3103ZM17.0526 13.8621V19.4483H10.9895L13.8316 13.8621H17.0526ZM8.90526 13.8621H11.7474L8.90526 19.4483H3.22105L8.90526 13.8621ZM1.89474 21.3103H8.52632C8.33684 22.8931 6.91579 24.1034 5.21053 24.1034C3.50526 24.1034 2.17895 22.8931 1.89474 21.3103ZM3.78947 37.1379V32.7155H32.2105V37.1379H3.78947ZM30.7895 24.1034C29.0842 24.1034 27.7579 22.8931 27.4737 21.3103H34.1053C33.8211 22.8931 32.4947 24.1034 30.7895 24.1034Z" fill="currentcolor"/>
</svg>
