<svg width="88" height="90" viewBox="0 0 88 90" fill="none" xmlns="http://www.w3.org/2000/svg">
<g clip-path="url(#clip0_1568_1755)">
<path d="M41.8658 48.4406V41.5205C41.8658 40.1365 40.9431 39.2138 39.5591 39.2138H21.1056C19.7216 39.2138 18.7989 40.1365 18.7989 41.5205V48.4406C17.4149 48.4406 16.4922 49.3632 16.4922 50.7473C16.4922 52.1313 17.4149 53.054 18.7989 53.054H21.1056H39.5591H41.8658C43.2498 53.054 44.1725 52.1313 44.1725 50.7473C44.1725 49.3632 43.2498 48.4406 41.8658 48.4406ZM23.4123 48.4406V43.8272H37.2524V48.4406H23.4123Z" fill="currentcolor"/>
<path d="M88 21.9136C88 21.6829 88 21.4522 88 21.2216C88 20.5296 88 19.8375 87.308 19.1455L68.8544 0.692007C68.3931 0.230669 67.9317 0 67.2397 0H21.1059C20.4139 0 19.9526 0.230669 19.4912 0.692007L1.03771 19.1455C0.576372 19.6069 0.345703 20.2989 0.345703 21.2216C0.345703 21.4522 0.345703 21.6829 0.345703 21.9136C0.345703 25.8349 2.19106 29.5256 4.95908 31.8323C4.95908 32.063 4.95908 32.063 4.95908 32.2937V64.5874C4.95908 65.9714 5.88176 66.894 7.26578 66.894H53.3996H69.5464H81.0799C82.4639 66.894 83.3866 65.9714 83.3866 64.5874V32.2937C83.3866 32.063 83.3866 31.8323 83.3866 31.8323C86.1546 29.5256 88 25.8349 88 21.9136ZM80.1572 18.4535H66.3171L59.397 4.61338H66.3171L80.1572 18.4535ZM41.8661 4.61338V18.4535H27.1033L34.0234 4.61338H41.8661ZM54.3223 4.61338L61.2423 18.4535H46.4795V4.61338H54.3223ZM41.8661 23.0669C41.4048 26.9883 37.9448 29.987 33.7927 29.987C29.6407 29.987 26.4113 26.9883 25.7193 23.0669H41.8661ZM62.6264 23.0669C62.165 26.9883 58.705 29.987 54.5529 29.987C50.4009 29.987 47.1715 26.9883 46.4795 23.0669H62.6264ZM22.0286 4.61338H28.9487L22.0286 18.4535H8.18845L22.0286 4.61338ZM21.1059 23.0669C20.6446 26.9883 17.1845 29.987 13.0325 29.987C8.88046 29.987 5.65109 26.9883 4.95908 23.0669H21.1059ZM55.7063 62.2807V39.2137H67.2397V62.2807H55.7063ZM78.7732 62.2807H71.8531V36.9071C71.8531 35.523 70.9304 34.6004 69.5464 34.6004H54.5529H53.3996C52.0156 34.6004 51.0929 35.523 51.0929 36.9071V62.2807H9.57247V34.139C10.7258 34.3697 11.8792 34.6004 13.0325 34.6004C17.4152 34.6004 21.1059 32.5243 23.4126 29.295C25.7193 32.5243 29.41 34.6004 33.7927 34.6004C38.1754 34.6004 41.8661 32.5243 44.1728 29.295C46.4795 32.5243 50.1702 34.6004 54.5529 34.6004C58.9357 34.6004 62.6264 32.5243 64.9331 29.295C67.2397 32.5243 70.9304 34.6004 75.3132 34.6004C76.4665 34.6004 77.6199 34.3697 78.7732 34.139V62.2807ZM75.3132 29.987C71.1611 29.987 67.9317 26.9883 67.2397 23.0669H83.3866C82.6946 26.9883 79.4652 29.987 75.3132 29.987Z" fill="currentcolor"/>
<path d="M58.9356 57.8979C60.2095 57.8979 61.2423 56.8651 61.2423 55.5912C61.2423 54.3172 60.2095 53.2845 58.9356 53.2845C57.6616 53.2845 56.6289 54.3172 56.6289 55.5912C56.6289 56.8651 57.6616 57.8979 58.9356 57.8979Z" fill="currentcolor"/>
</g>
<defs>
<clipPath id="clip0_1568_1755">
<rect width="87.6543" height="66.894" fill="white" transform="translate(0.345703)"/>
</clipPath>
</defs>
</svg>
