<svg width="40" height="41" viewBox="0 0 40 41" fill="none" xmlns="http://www.w3.org/2000/svg">
<path d="M38.96 24.68C36.03 24.12 34.1 23.27 32.91 22.03C32.56 21.66 31.9 21.66 31.55 22.03C30.35 23.28 28.43 24.12 25.49 24.68C25.05 24.77 24.72 25.16 24.72 25.61V32.39C24.72 35.19 26.28 37.7 28.79 38.94L31.8 40.42C31.93 40.48 32.07 40.52 32.22 40.52C32.37 40.52 32.51 40.49 32.64 40.42L35.65 38.94C38.16 37.7 39.72 35.19 39.72 32.39V25.61C39.72 25.16 39.4 24.77 38.95 24.68H38.96ZM37.84 26.38V32.39C37.84 34.47 36.68 36.32 34.82 37.24L32.22 38.52L29.62 37.24C27.76 36.32 26.6 34.46 26.6 32.39V26.38C29.08 25.83 30.88 25.06 32.21 23.97C33.54 25.06 35.34 25.83 37.82 26.38H37.84Z" fill="currentcolor"/>
<path d="M30.4701 30.66C30.1001 30.29 29.5001 30.29 29.1301 30.66C28.9501 30.84 28.8501 31.08 28.8501 31.33C28.8501 31.58 28.9501 31.82 29.1301 32L31.1701 34.04C31.3501 34.22 31.5901 34.32 31.8401 34.32C32.0901 34.32 32.3301 34.22 32.5101 34.04L36.2701 30.28C36.6401 29.91 36.6401 29.31 36.2701 28.94C35.9101 28.58 35.2901 28.58 34.9301 28.94L31.8401 32.03L30.4701 30.66Z" fill="currentcolor"/>
<path d="M24.89 38.62H3.48C2.6 38.62 1.89 37.91 1.89 37.03V17.45C1.89 16.57 2.6 15.86 3.48 15.86H29.69C30.57 15.86 31.28 16.57 31.28 17.45V19.76C31.28 20.28 31.7 20.7 32.22 20.7C32.74 20.7 33.16 20.28 33.16 19.76V17.45C33.16 15.53 31.6 13.97 29.68 13.97H26.78V10.21C26.78 4.58 22.2 0 16.58 0C10.96 0 6.38 4.58 6.38 10.21V13.97H3.48C1.56 13.97 0 15.53 0 17.45V37.03C0 38.95 1.56 40.51 3.48 40.51H24.89C25.41 40.51 25.83 40.09 25.83 39.57C25.83 39.05 25.41 38.62 24.89 38.62ZM11.93 10.05C11.93 7.48 14.02 5.39 16.59 5.39C19.16 5.39 21.25 7.48 21.25 10.05V13.98H11.94V10.05H11.93ZM16.59 1.9C21.17 1.9 24.9 5.63 24.9 10.22V13.98H23.13V10.05C23.13 6.44 20.19 3.5 16.58 3.5C12.97 3.5 10.03 6.44 10.03 10.05V13.98H8.26V10.22C8.26 5.64 11.99 1.9 16.57 1.9H16.59Z" fill="currentcolor"/>
<path d="M16.58 34.39C17.87 34.39 18.91 33.34 18.91 32.06V27.79C19.82 27.08 20.36 25.97 20.36 24.81C20.36 23.79 19.96 22.83 19.23 22.11C18.5 21.39 17.52 20.99 16.51 21.02C15.51 21.04 14.56 21.46 13.85 22.2C13.14 22.94 12.76 23.91 12.79 24.91C12.82 26.02 13.36 27.09 14.24 27.78V32.05C14.24 33.34 15.29 34.38 16.57 34.38L16.58 34.39ZM17.91 23.46C18.28 23.82 18.48 24.3 18.48 24.81C18.48 25.49 18.11 26.13 17.51 26.46C17.21 26.63 17.03 26.94 17.03 27.28V32.05C17.03 32.3 16.83 32.49 16.59 32.49C16.35 32.49 16.15 32.29 16.15 32.05V27.28C16.15 26.94 15.97 26.62 15.67 26.46C15.09 26.13 14.72 25.52 14.7 24.86C14.69 24.36 14.88 23.88 15.24 23.51C15.6 23.13 16.07 22.92 16.6 22.91C17.1 22.91 17.57 23.1 17.93 23.45L17.91 23.46Z" fill="currentcolor"/>
</svg>
