<svg width="88" height="90" viewBox="0 0 88 90" fill="none" xmlns="http://www.w3.org/2000/svg">
<g clip-path="url(#clip0_1568_1737)">
<path fill-rule="evenodd" clip-rule="evenodd" d="M53.5135 12.1622C53.5135 8.02703 50.3514 4.86487 46.2162 4.86487C42.0811 4.86487 38.9189 8.02703 38.9189 12.1622C38.9189 16.2973 42.0811 19.4595 46.2162 19.4595C50.3514 19.4595 53.5135 16.2973 53.5135 12.1622ZM75.4054 58.3784C75.4054 54.2432 72.2432 51.0811 68.1081 51.0811C63.973 51.0811 60.8108 54.2432 60.8108 58.3784C60.8108 62.5135 63.973 65.6757 68.1081 65.6757C72.2432 65.6757 75.4054 62.5135 75.4054 58.3784ZM87.5676 86.5946C87.5676 86.8378 87.5676 87.0811 87.5676 87.3243C87.5676 87.3243 87.5676 87.3243 87.5676 87.5676C87.5676 89.027 86.3514 90 84.8919 89.7568C83.4324 89.7568 82.4595 88.5406 82.7027 87.0811C82.7027 86.8378 82.7027 86.8378 82.7027 86.8378C82.7027 86.5946 82.7027 86.3514 82.7027 86.3514C82.7027 78.8108 76.1351 72.7297 68.1081 72.7297C60.0811 72.7297 53.5135 78.8108 53.5135 86.3514C53.5135 86.5946 53.5135 86.5946 53.5135 86.8378C53.5135 86.8378 53.5135 86.8378 53.5135 87.0811C53.5135 88.5406 52.5405 89.5135 51.3243 89.7568C49.8649 89.7568 48.8919 88.7838 48.6486 87.5676C48.6486 87.5676 48.6486 87.5676 48.6486 87.3243C48.6486 86.8379 48.6486 86.5946 48.6486 86.3514C48.6486 78.0811 54.2432 71.027 62.2703 68.8378C58.3784 66.8919 55.9459 63 55.9459 58.3784C55.9459 51.5676 61.2973 46.2162 68.1081 46.2162C74.9189 46.2162 80.2703 51.5676 80.2703 58.3784C80.2703 63 77.8378 66.8919 73.9459 69.0811C81.973 71.2703 87.5676 78.3243 87.5676 86.5946ZM52.0541 22.8649C59.8378 25.2973 65.6757 32.1081 65.6757 40.3784C65.6757 40.6216 65.6757 40.8649 65.6757 41.1081C65.6757 41.1081 65.6757 41.1081 65.6757 41.3514C65.6757 42.8108 64.4595 43.7838 63 43.5405C61.5405 43.5405 60.5676 42.3243 60.8108 40.8649C60.8108 40.6216 60.8108 40.6216 60.8108 40.6216C60.8108 40.3784 60.8108 40.1351 60.8108 40.1351C60.8108 32.5946 54.2432 26.5135 46.2162 26.5135C38.1892 26.5135 31.6216 32.5946 31.6216 40.1351C31.6216 40.3784 31.6216 40.3784 31.6216 40.6216C31.6216 40.6216 31.6216 40.6216 31.6216 40.8649C31.6216 42.3243 30.6486 43.2973 29.4324 43.5405C27.973 43.5405 27 42.5676 26.7568 41.3514C26.7568 41.3514 26.7568 41.3514 26.7568 41.1081C26.7568 40.6216 26.7568 40.3784 26.7568 40.1351C26.7568 31.8649 32.3514 24.8108 40.3784 22.6216C36.4865 20.6757 34.0541 16.7838 34.0541 12.1622C34.0541 5.35135 39.4054 0 46.2162 0C53.027 0 58.3784 5.35135 58.3784 12.1622C58.3784 16.7838 55.9459 20.6757 52.0541 22.8649ZM26.7568 58.3784C26.7568 54.2432 23.5946 51.0811 19.4595 51.0811C15.3243 51.0811 12.1622 54.2432 12.1622 58.3784C12.1622 62.5135 15.3243 65.6757 19.4595 65.6757C23.5946 65.6757 26.7568 62.5135 26.7568 58.3784ZM25.2973 69.0811C33.0811 71.5135 38.9189 78.3243 38.9189 86.5946C38.9189 86.8378 38.9189 87.0811 38.9189 87.3243C38.9189 87.3243 38.9189 87.3243 38.9189 87.5676C38.9189 89.027 37.7027 90 36.2432 89.7568C34.7838 89.7568 33.8108 88.5406 34.0541 87.0811C34.0541 86.8378 34.0541 86.8378 34.0541 86.8378C34.0541 86.5946 34.0541 86.3514 34.0541 86.3514C34.0541 78.8108 27.4865 72.7297 19.4595 72.7297C11.4324 72.7297 4.86486 78.8108 4.86486 86.3514C4.86486 86.5946 4.86486 86.5946 4.86486 86.8378C4.86486 86.8378 4.86486 86.8378 4.86486 87.0811C4.86486 88.5406 3.89189 89.5135 2.67568 89.7568C1.45946 90 0.243243 88.7838 0 87.5676C0 87.5676 0 87.5676 0 87.3243C0 86.8379 0 86.5946 0 86.3514C0 78.0811 5.59459 71.027 13.6216 68.8378C9.72973 66.8919 7.2973 63 7.2973 58.3784C7.2973 51.5676 12.6486 46.2162 19.4595 46.2162C26.2703 46.2162 31.6216 51.5676 31.6216 58.3784C31.6216 63 29.1892 66.8919 25.2973 69.0811Z" fill="currentcolor"/>
</g>
<defs>
<clipPath id="clip0_1568_1737">
<rect width="87.5676" height="90" fill="white"/>
</clipPath>
</defs>
</svg>
