<svg width="36" height="40" viewBox="0 0 36 40" fill="none" xmlns="http://www.w3.org/2000/svg">
<path fill-rule="evenodd" clip-rule="evenodd" d="M5.71428 32.9286H2.17857C1.47143 32.9286 1 33.4 1 34.1071C1 34.8143 1.47143 35.2857 2.17857 35.2857H5.71428V38.8214C5.71428 39.5286 6.18571 40 6.89286 40C7.6 40 8.07143 39.5286 8.07143 38.8214V35.2857H11.6071C12.3143 35.2857 12.7857 34.8143 12.7857 34.1071C12.7857 33.4 12.3143 32.9286 11.6071 32.9286H8.07143V29.3929C8.07143 28.6857 7.6 28.2143 6.89286 28.2143C6.18571 28.2143 5.71428 28.6857 5.71428 29.3929V32.9286ZM13.9643 15.8393C13.9643 12.3036 16.9107 9.35714 20.4464 9.35714C23.9821 9.35714 26.9286 12.3036 26.9286 15.8393C26.9286 19.375 23.9821 22.3214 20.4464 22.3214C16.9107 22.3214 13.9643 19.375 13.9643 15.8393ZM23.9821 23.9714C27.1643 22.5571 29.2857 19.4929 29.2857 15.8393C29.2857 11.0071 25.2786 7 20.4464 7C15.6143 7 11.6071 11.0071 11.6071 15.8393C11.6071 19.4929 13.8464 22.675 17.0286 23.9714C15.1429 24.4429 13.4929 25.3857 11.9607 26.6821C11.4893 27.1536 11.3714 27.8607 11.8429 28.3321C12.3143 28.8036 13.0214 28.9214 13.4929 28.45C15.4964 26.8 17.9714 25.8571 20.5643 25.8571C26.6929 25.8571 31.6429 30.8071 31.6429 36.9357V37.6429C31.6429 38.35 32.1143 38.8214 32.7036 38.9393C33.4107 38.9393 33.8821 38.4679 34 37.8786V36.8179C34 30.6893 29.7571 25.3857 23.9821 23.9714Z" fill="currentcolor"/>
</svg>
