<svg width="41" height="35" viewBox="0 0 41 35" fill="none" xmlns="http://www.w3.org/2000/svg">
<g clip-path="url(#clip0_7322_3150)">
<path d="M39.81 17.57C36.55 16.95 34.41 16 33.06 14.6C32.74 14.27 32.16 14.27 31.84 14.6C30.5 16 28.35 16.94 25.09 17.57C24.69 17.65 24.4 18 24.4 18.4V25.84C24.4 28.84 26.07 31.53 28.77 32.86L32.08 34.49C32.2 34.55 32.33 34.58 32.46 34.58C32.59 34.58 32.72 34.55 32.83 34.49L36.14 32.86C38.83 31.53 40.51 28.84 40.51 25.84V18.4C40.51 17.99 40.22 17.64 39.82 17.57H39.81ZM38.8 19.1V25.85C38.8 28.2 37.49 30.31 35.38 31.35L32.45 32.8L29.52 31.35C27.41 30.31 26.1 28.21 26.1 25.85V19.1C28.95 18.49 30.98 17.61 32.45 16.36C33.93 17.61 35.96 18.49 38.8 19.1Z" fill="currentcolor"/>
<path d="M29.88 29.02H35.02C35.76 29.02 36.37 28.42 36.37 27.67V23.83C36.37 23.09 35.77 22.48 35.02 22.48H34.97V22.36C34.97 20.97 33.84 19.83 32.44 19.83C31.04 19.83 29.91 20.96 29.91 22.36V22.48H29.87C29.13 22.48 28.52 23.08 28.52 23.83V27.67C28.52 28.41 29.12 29.02 29.87 29.02H29.88ZM34.67 24.18V27.32H30.23V24.18H34.67ZM33.28 22.48H31.62V22.36C31.62 21.9 31.99 21.53 32.45 21.53C32.91 21.53 33.28 21.9 33.28 22.36V22.48Z" fill="currentcolor"/>
<path d="M22.84 18.9L20.41 18.5L20.02 17.58C19.84 17.15 19.34 16.95 18.91 17.13C18.7 17.22 18.54 17.38 18.46 17.59C18.38 17.8 18.38 18.03 18.46 18.24L18.74 18.89L15.8 20.53L12.86 18.89L13.14 18.24C13.32 17.81 13.12 17.31 12.69 17.13C12.48 17.04 12.25 17.04 12.04 17.13C11.83 17.21 11.66 17.38 11.58 17.58L11.19 18.5L6.19 19.32C3.36 19.78 1.17 22.1 0.889996 24.96L-4.34043e-06 33.65C-0.0500043 34.11 0.289996 34.53 0.759996 34.58H0.839996C1.28 34.58 1.64 34.26 1.68 33.82L2.56 25.13C2.77 23.03 4.37 21.33 6.45 20.99L11.62 20.15L14.87 21.96L12.72 30.69C12.65 30.96 12.72 31.24 12.9 31.45L15.15 34.04C15.31 34.23 15.55 34.33 15.79 34.33C16.03 34.33 16.27 34.22 16.43 34.04L18.68 31.45C18.86 31.24 18.93 30.96 18.86 30.69L16.71 21.96L19.96 20.15L22.56 20.57C22.78 20.61 23.01 20.55 23.19 20.42C23.37 20.29 23.5 20.09 23.53 19.87C23.57 19.65 23.51 19.42 23.38 19.24C23.25 19.06 23.05 18.93 22.83 18.9H22.84ZM14.48 30.67L15.8 25.31L17.12 30.67L15.8 32.19L14.48 30.67Z" fill="currentcolor"/>
<path d="M9.65 12.02C10.48 14.76 12.52 17.65 15.8 17.65C19.08 17.65 21.24 14.75 22.01 11.99C22.88 11.44 22.94 10.46 22.97 10.08L23.03 9.17001C23.09 8.25001 22.84 7.56001 22.29 7.12001C22.3 3.37001 20.81 2.15001 19.92 1.43001L19.87 1.39001C18.45 0.230006 15.67 -0.159994 13.77 0.0600056C12.37 0.220006 11.74 0.540006 11.36 1.31001C10.82 1.59001 10.43 2.06001 10.14 2.61001C10.11 2.66001 10.09 2.71001 10.07 2.76001C9.38 4.16001 9.29 6.07001 9.31 7.13001C8.76 7.57001 8.52 8.25001 8.58 9.17001L8.64 10.09C8.66 10.48 8.73 11.48 9.65 12.03V12.02ZM18.84 2.74001C18.84 2.74001 18.88 2.78001 18.91 2.80001C17.55 2.78001 16.05 3.15001 15.08 3.46001C13.66 3.90001 12.56 3.95001 12.05 3.58001C11.89 3.46001 11.81 3.32001 11.77 3.21001C11.89 3.04001 12.02 2.89001 12.17 2.82001C12.65 2.58001 12.82 2.23001 12.91 2.04001C12.98 1.90001 13.53 1.81001 13.97 1.75001C14.25 1.72001 14.56 1.70001 14.88 1.70001C16.22 1.70001 17.95 2.01001 18.79 2.70001L18.84 2.74001ZM11.03 7.54001C10.98 6.80001 11.03 5.86001 11.16 5.01001C12.15 5.65001 13.63 5.68001 15.58 5.07001C17.61 4.44001 19.32 4.30001 20.05 4.71001C20.22 4.80001 20.31 4.93001 20.36 5.09001C20.52 5.72001 20.61 6.51001 20.57 7.56001C20.56 7.92001 20.77 8.25001 21.1 8.38001C21.23 8.43001 21.36 8.48001 21.32 9.06001L21.26 9.98001C21.22 10.53 21.12 10.57 20.99 10.61C20.72 10.71 20.51 10.93 20.45 11.21C20.19 12.32 19.07 15.95 15.79 15.95C13.3 15.95 11.74 13.39 11.17 11.2C11.1 10.92 10.89 10.7 10.62 10.61C10.47 10.56 10.36 10.52 10.33 9.97001L10.27 9.05001C10.23 8.48001 10.37 8.42001 10.49 8.37001C10.83 8.23001 11.04 7.89001 11.02 7.53001L11.03 7.54001Z" fill="currentcolor"/>
</g>
<defs>
<clipPath id="clip0_7322_3150">
<rect width="40.5" height="34.58" fill="white"/>
</clipPath>
</defs>
</svg>
