<svg width="89" height="88" viewBox="0 0 89 88" fill="none" xmlns="http://www.w3.org/2000/svg">
<path fill-rule="evenodd" clip-rule="evenodd" d="M74.8108 68.5766H84.1622C86.0324 68.5766 87.2793 69.8234 87.2793 71.6937C87.2793 73.564 86.0324 74.8108 84.1622 74.8108H74.8108V84.1622C74.8108 86.0324 73.564 87.2793 71.6937 87.2793C69.8234 87.2793 68.5766 86.0324 68.5766 84.1622V74.8108H59.2252C57.355 74.8108 56.1081 73.564 56.1081 71.6937C56.1081 69.8234 57.355 68.5766 59.2252 68.5766H68.5766V59.2252C68.5766 57.355 69.8234 56.1081 71.6937 56.1081C73.564 56.1081 74.8108 57.355 74.8108 59.2252V68.5766ZM52.991 23.3784C52.991 14.027 45.1982 6.23424 35.8469 6.23424C26.4955 6.23424 18.7027 14.027 18.7027 23.3784C18.7027 32.7297 26.4955 40.5225 35.8469 40.5225C45.1982 40.5225 52.991 32.7297 52.991 23.3784ZM26.4955 44.8865C18.0793 41.146 12.4685 33.0414 12.4685 23.3784C12.4685 10.5982 23.0667 0 35.8469 0C48.627 0 59.2252 10.5982 59.2252 23.3784C59.2252 33.0414 53.3027 41.4577 44.8865 44.8865C49.8739 46.1333 54.2378 48.627 58.2901 52.0559C59.5369 53.3027 59.8487 55.173 58.6018 56.4198C57.355 57.6667 55.4847 57.9784 54.2378 56.7315C48.9387 52.3676 42.3928 49.8739 35.5351 49.8739C19.3261 49.8739 6.23424 62.9658 6.23424 79.1748C6.23424 79.4865 6.23424 79.4865 6.23424 79.7982C6.23424 80.1099 6.23424 80.1099 6.23424 80.4216C6.23424 80.7333 6.23424 80.7333 6.23424 81.0451C6.23424 82.9153 4.98739 84.1622 3.42883 84.4739C1.55856 84.4739 0.311712 83.227 0 81.6685C0 81.0451 0 81.0451 0 80.7333C0 80.4216 0 80.4216 0 80.1099C0 79.7982 0 79.1748 0 78.8631C0 62.6541 11.2216 48.627 26.4955 44.8865Z" fill="currentcolor"/>
</svg>
