<svg width="36" height="41" viewBox="0 0 36 41" fill="none" xmlns="http://www.w3.org/2000/svg">
<path d="M34.999 22.9904C34.999 18.4504 33.229 14.1804 30.019 10.9804C26.809 7.77039 22.539 6.00039 18.009 6.00039C13.619 5.97039 9.40904 7.65039 6.23904 10.7404C6.23904 10.7404 6.21904 10.7404 6.20904 10.7604C4.15904 12.6704 2.64904 15.0904 1.83904 17.7504C0.439041 22.0704 0.799041 26.6704 2.85904 30.7204C4.91904 34.7704 8.43904 37.7704 12.759 39.1704C14.489 39.7304 16.259 40.0104 18.029 40.0104C20.679 40.0104 23.309 39.3804 25.729 38.1504C29.779 36.0904 32.779 32.5704 34.179 28.2604C34.179 28.2504 34.179 28.2304 34.179 28.2204C34.739 26.5304 35.019 24.7704 34.999 23.0004V22.9904ZM18.999 8.03039C22.629 8.27039 26.009 9.79039 28.599 12.3904C31.429 15.2204 32.989 18.9904 32.989 23.0004C32.999 24.2404 32.849 25.4704 32.539 26.6704L18.989 22.2804V8.03039H18.999ZM16.999 8.03039V20.5304L8.31904 11.5404C10.759 9.44039 13.779 8.22039 16.999 8.03039ZM24.809 36.3704C21.239 38.1904 17.179 38.5104 13.359 37.2704C9.53904 36.0304 6.44904 33.3904 4.62904 29.8204C2.80904 26.2504 2.48904 22.1904 3.72904 18.3604C4.33904 16.3304 5.41904 14.4704 6.85904 12.9304L17.269 23.7104C17.269 23.7104 17.269 23.7104 17.279 23.7104C17.289 23.7204 17.309 23.7304 17.319 23.7404C17.379 23.8004 17.459 23.8504 17.529 23.8904C17.559 23.9104 17.599 23.9304 17.629 23.9404C17.639 23.9404 17.659 23.9604 17.669 23.9604L31.909 28.5804C30.559 31.9604 28.069 34.7004 24.789 36.3704H24.809Z" fill="#626467"/>
</svg>
