<svg width="41" height="41" viewBox="0 0 41 41" fill="none" xmlns="http://www.w3.org/2000/svg">
<g clip-path="url(#clip0_7322_3149)">
<path d="M34.93 24.7C34.93 18.99 30.29 14.35 24.58 14.35C18.87 14.35 14.23 18.99 14.23 24.7C14.23 30.41 18.87 35.05 24.58 35.05C30.29 35.05 34.93 30.41 34.93 24.7ZM33.06 24.7C33.06 29.38 29.25 33.19 24.57 33.19C19.89 33.19 16.09 29.38 16.09 24.7C16.09 20.02 19.9 16.21 24.57 16.21C29.24 16.21 33.06 20.02 33.06 24.7Z" fill="currentcolor"/>
<path d="M39.81 36.63L34.75 31.57C34.57 31.39 34.34 31.3 34.09 31.3C33.84 31.3 33.61 31.4 33.43 31.57C33.25 31.74 33.16 31.98 33.16 32.23C33.16 32.48 33.26 32.71 33.43 32.89L38.49 37.95C38.58 38.04 38.63 38.16 38.63 38.28C38.63 38.4 38.58 38.53 38.49 38.61C38.31 38.79 38.01 38.79 37.82 38.61L32.76 33.55C32.4 33.19 31.8 33.19 31.44 33.55C31.08 33.91 31.08 34.51 31.44 34.87L36.5 39.93C36.94 40.37 37.53 40.62 38.15 40.62C38.77 40.62 39.36 40.38 39.8 39.94C40.24 39.5 40.49 38.91 40.49 38.29C40.49 37.67 40.25 37.08 39.8 36.64L39.81 36.63Z" fill="currentcolor"/>
<path d="M21.4 35.98L15.99 38.65L9.48 35.44C4.78 33.12 1.86 28.43 1.86 23.19V8.38999C8.37 7.05999 12.88 5.08999 15.98 2.20999C19.09 5.08999 23.59 7.05999 30.1 8.38999V13.79C30.1 14.3 30.52 14.72 31.03 14.72C31.54 14.72 31.96 14.3 31.96 13.79V7.61999C31.96 7.16999 31.64 6.78999 31.2 6.69999C24.2 5.35999 19.58 3.30999 16.64 0.249988C16.3 -0.100012 15.63 -0.100012 15.29 0.249988C12.38 3.31999 7.75 5.36999 0.76 6.70999C0.32 6.78999 0 7.17999 0 7.62999V23.2C0 29.15 3.32 34.49 8.66 37.12L15.58 40.53C15.71 40.59 15.85 40.63 15.99 40.63C16.13 40.63 16.27 40.6 16.4 40.53L22.23 37.66C22.69 37.43 22.88 36.87 22.65 36.41C22.42 35.95 21.86 35.76 21.4 35.98Z" fill="currentcolor"/>
</g>
<defs>
<clipPath id="clip0_7322_3149">
<rect width="40.5" height="40.62" fill="white"/>
</clipPath>
</defs>
</svg>
