<svg width="33" height="36" viewBox="0 0 33 36" fill="none" xmlns="http://www.w3.org/2000/svg">
<g style="mix-blend-mode:multiply" opacity="0.5">
<path d="M15.4107 36C14.7289 36 14.0383 35.9627 13.3565 35.8882C11.3544 35.6622 9.46163 35.1219 7.72535 34.2811C5.88225 33.3906 4.24532 32.1499 2.99217 30.693C2.3215 29.9155 1.75143 29.0698 1.29686 28.1768C0.833606 27.2602 0.489578 26.2902 0.274715 25.2941C0.0573691 24.3167 -0.0320534 23.2946 0.0101739 22.26C0.0524012 21.2577 0.223794 20.2505 0.518143 19.2668C0.581484 19.0532 0.652277 18.8396 0.733006 18.6185C0.541741 18.2496 0.411333 17.8733 0.344266 17.4945C-0.156251 14.6976 1.70796 11.9242 4.41547 11.4399C4.67008 11.3939 4.93586 11.3716 5.20661 11.3716C5.25132 11.3716 5.29604 11.3716 5.34075 11.3728L5.44507 7.15256C5.33826 7.09543 5.24015 7.02215 5.15321 6.93645C4.7595 6.90913 4.40554 6.70172 4.18943 6.37756C3.95221 6.20244 3.78206 5.94784 3.71251 5.65597C3.40574 5.42993 3.20703 5.06852 3.20082 4.65618C3.19833 4.47485 3.23311 4.30346 3.29893 4.14697C3.05426 3.86255 2.94 3.47257 3.01328 3.08135C3.05799 2.84786 3.16356 2.63796 3.31508 2.46905C3.31756 2.31877 3.34737 2.16725 3.4045 2.02194C3.47529 1.8431 3.58583 1.68412 3.72493 1.5562C3.74853 1.38729 3.80566 1.22211 3.89633 1.07059C4.10746 0.72159 4.47633 0.490582 4.87997 0.449596C4.88618 0.442145 4.89239 0.434693 4.89984 0.427241C5.14327 0.155247 5.49475 4.43961e-09 5.86362 4.73764e-09C6.10084 4.92931e-09 6.33185 0.0645829 6.53056 0.183813C6.67091 0.199959 6.80628 0.239702 6.93048 0.300559C7.03356 0.273235 7.14162 0.259574 7.25215 0.259574C7.61108 0.259574 7.95387 0.412337 8.19109 0.679362C8.21965 0.710412 8.24574 0.742703 8.27057 0.777479C8.47302 0.873111 8.64814 1.02091 8.77854 1.21093C8.8009 1.24322 8.82077 1.27551 8.8394 1.30905C9.12257 1.43821 9.35606 1.66798 9.48647 1.96481C9.63303 2.2989 9.62806 2.67398 9.48523 2.9969C9.49268 3.02546 9.49889 3.05527 9.50386 3.08383C10.0131 3.34217 10.3 3.90975 10.1932 4.4823C10.1472 4.73194 10.0342 4.9555 9.87149 5.1331L13.4459 8.54606C14.586 8.33865 15.7361 8.23432 16.8676 8.23432C17.5941 8.23432 18.3219 8.27779 19.0311 8.36349C19.8856 8.45912 20.7798 8.63424 21.6852 8.88139C22.3298 8.41565 23.0303 8.1064 23.7332 7.98096C24.0015 7.93252 24.276 7.90892 24.5504 7.90892C27.0158 7.90892 29.2091 9.77437 29.6512 12.2472C29.7456 12.7775 29.7258 13.3389 29.5904 13.9226C30.0549 14.5088 30.466 15.1335 30.8137 15.7843C31.2969 16.686 31.6583 17.6212 31.8868 18.5639C32.3674 20.4976 32.355 22.5519 31.8508 24.503C31.6049 25.4668 31.2435 26.4082 30.7765 27.3012C30.3107 28.188 29.7581 29.0226 29.1321 29.7839C28.4999 30.5502 27.7982 31.2569 27.0481 31.8828C26.3116 32.4976 25.4993 33.064 24.6324 33.5632C23.7953 34.0426 22.9036 34.4599 21.9771 34.8065C21.0952 35.1356 20.1526 35.4063 19.1739 35.61C18.2101 35.8087 17.2364 35.9317 16.2789 35.9789C15.9895 35.9925 15.6989 35.9988 15.4132 35.9988L15.4107 36Z" fill="#5EA517"/>
</g>
<path d="M30.8063 18.5204C30.5952 17.6485 30.2598 16.7816 29.8115 15.9445C29.419 15.213 28.9446 14.5187 28.3981 13.8779C28.6005 13.2619 28.6552 12.6831 28.5608 12.154C28.1957 10.1172 26.3265 8.52123 24.3033 8.52123C24.0797 8.52123 23.8549 8.5411 23.6364 8.5796C22.9409 8.7038 22.2466 9.05031 21.6181 9.58312C21.5275 9.55455 21.4368 9.52723 21.3449 9.49991C20.437 9.24406 19.5391 9.06646 18.6809 8.96958C18.0052 8.88761 17.3122 8.84663 16.6204 8.84663C15.5051 8.84663 14.3724 8.95344 13.2497 9.16333C13.1429 9.18444 13.0361 9.20556 12.9293 9.22915L8.63823 5.13187C8.67921 5.0884 8.71274 5.03748 8.7351 4.98035C8.80217 4.80895 8.75746 4.61769 8.62208 4.49225C8.60469 4.4761 8.58606 4.45996 8.56743 4.44381C8.59848 4.45126 8.63077 4.45375 8.66306 4.45375C8.87793 4.45375 9.06298 4.29726 9.10273 4.08115C9.14247 3.86629 9.02821 3.66136 8.82576 3.58312C8.68294 3.52847 8.53142 3.48252 8.36872 3.4465C8.33518 3.41048 8.29668 3.38192 8.25197 3.35708C8.35878 3.28132 8.3712 3.24778 8.3948 3.1832C8.43702 3.06894 8.42088 2.93108 8.35009 2.83172C8.32525 2.7957 8.27929 2.74478 8.20726 2.70752C8.26191 2.64791 8.3178 2.58705 8.37493 2.52495C8.49043 2.39951 8.52148 2.21818 8.45317 2.06294C8.38486 1.9052 8.22961 1.8046 8.05822 1.8046C7.99115 1.8046 7.92657 1.82075 7.86696 1.85056C7.86696 1.85056 7.86696 1.84807 7.8682 1.84683C7.91912 1.71394 7.90173 1.56614 7.82349 1.45064C7.74276 1.33389 7.60987 1.26434 7.46704 1.26434C7.44593 1.26434 7.42481 1.26559 7.4037 1.26931C7.4037 1.17244 7.36768 1.07805 7.3031 1.00477C7.22734 0.920316 7.11804 0.871878 7.00378 0.871878C6.80382 0.871878 6.63616 1.01471 6.60386 1.21218C6.59765 1.25192 6.59144 1.29167 6.58523 1.33141C6.56288 1.2482 6.54052 1.16499 6.51817 1.08177C6.47097 0.909138 6.31324 0.787424 6.1344 0.787424C6.08348 0.787424 6.0338 0.79736 5.9866 0.815989C5.9096 0.693033 5.77174 0.612305 5.61525 0.612305C5.48981 0.612305 5.37058 0.664468 5.28861 0.755132C5.20912 0.843313 5.17186 0.961301 5.18428 1.08053C5.1967 1.19355 5.21161 1.30657 5.23024 1.42083C5.19422 1.36619 5.15944 1.31154 5.12467 1.25565C5.04642 1.13021 4.91105 1.05445 4.76201 1.05445C4.61297 1.05445 4.46021 1.13642 4.38072 1.26807C4.30372 1.39475 4.29999 1.54876 4.36954 1.68041C4.39811 1.7363 4.42916 1.79094 4.46021 1.84559C4.42171 1.83317 4.38072 1.82696 4.33849 1.82696C4.16959 1.82696 4.01434 1.93253 3.95224 2.0915C3.89014 2.24799 3.92988 2.42435 4.0516 2.53986C4.10873 2.59326 4.16462 2.64667 4.22299 2.70131C4.18822 2.69138 4.1522 2.68144 4.11618 2.67275C4.08513 2.66405 4.0429 2.65909 4.01061 2.65909C3.81314 2.65909 3.64299 2.80191 3.60573 2.99815C3.56847 3.1919 3.67528 3.3844 3.85661 3.45644C4.20684 3.59554 4.5695 3.73712 4.94458 3.86008C4.69494 3.92839 4.44779 3.97931 4.19691 3.99049C3.97584 4.00042 3.80444 4.18175 3.80693 4.40282C3.80941 4.62265 3.98577 4.79777 4.2056 4.8015H4.26025C4.32359 4.8015 4.38569 4.80026 4.44655 4.79653C4.32111 4.88968 4.25901 5.04741 4.29378 5.20639C4.32732 5.36163 4.44406 5.47838 4.59062 5.5144C4.59558 5.54048 4.60428 5.56656 4.61546 5.5914C4.68004 5.74168 4.82659 5.83979 4.99053 5.83979C5.09238 5.83979 5.19049 5.80129 5.26501 5.73174C5.32711 5.67461 5.39045 5.615 5.45379 5.55538C5.44137 5.58519 5.42895 5.615 5.41777 5.6448C5.36685 5.77024 5.38176 5.91183 5.45752 6.02361C5.53328 6.13663 5.65996 6.20369 5.79658 6.20369C5.81521 6.20369 5.8326 6.20369 5.84998 6.19997C5.91457 6.24344 5.99033 6.26952 6.06857 6.27697L5.9245 12.0969C5.59662 12.0236 5.27246 11.9863 4.957 11.9863C4.73717 11.9863 4.52231 12.005 4.31738 12.041C3.26294 12.2298 2.28923 12.8843 1.64588 13.8381C0.987636 14.8131 0.736756 15.9719 0.939199 17.1021C1.01123 17.5032 1.17642 17.9056 1.43102 18.3006C1.29689 18.6384 1.18511 18.9576 1.09196 19.2706C0.817485 20.1871 0.658512 21.1223 0.618768 22.0526C0.580267 23.0139 0.663479 23.9628 0.86468 24.8719C1.06464 25.7972 1.38383 26.6963 1.81231 27.5459C2.23582 28.3767 2.76739 29.1666 3.39459 29.892C4.57074 31.2606 6.11328 32.4281 7.85205 33.2677C9.50016 34.0662 11.2998 34.5792 13.2025 34.7941C13.8521 34.8648 14.5128 34.9009 15.1636 34.9009C15.4368 34.9009 15.7138 34.8946 15.987 34.8822C16.9011 34.8375 17.8301 34.7195 18.7492 34.5308C19.6856 34.3358 20.5861 34.0774 21.4256 33.7632C22.3074 33.4328 23.1582 33.0354 23.9531 32.5796C24.7777 32.1039 25.549 31.5674 26.247 30.9837C26.9562 30.3912 27.6194 29.7231 28.218 28.9977C28.8067 28.2811 29.3284 27.4962 29.7655 26.6616C30.2015 25.8282 30.5393 24.9476 30.769 24.046C31.2373 22.2327 31.2484 20.3225 30.8013 18.5229L30.8063 18.5204Z" fill="white"/>
<path d="M18.1902 34.0936C17.45 34.2265 16.7011 34.3109 15.9634 34.3469C15.0704 34.3879 14.16 34.3594 13.262 34.2612C11.4214 34.0538 9.67894 33.557 8.08548 32.7845C6.41129 31.976 4.92961 30.8545 3.79941 29.5405C3.20078 28.8462 2.69281 28.0923 2.28792 27.2999C1.88055 26.4927 1.57627 25.6357 1.38625 24.7551C1.19374 23.8857 1.11425 22.9841 1.15151 22.07C1.18877 21.1844 1.34153 20.2927 1.60235 19.4196C1.68059 19.1551 1.7725 18.8905 1.88055 18.6111L2.0209 18.2484L1.82094 17.9156C1.63837 17.6113 1.5179 17.3045 1.46449 17.0052C1.09686 14.9485 2.4469 12.9141 4.41295 12.5614C4.89732 12.4744 5.44752 12.5092 6.00392 12.6595L6.37155 12.7589L6.67956 12.5353C7.23845 12.1292 7.80355 11.769 8.3612 11.4635C9.09769 11.0573 9.91243 10.691 10.7868 10.3755C11.609 10.0849 12.4734 9.85263 13.3477 9.68496L13.4955 9.65764C15.2207 9.34839 16.9433 9.29498 18.615 9.49618C19.4521 9.59057 20.319 9.76321 21.1983 10.0104L21.7299 10.1693L22.0565 9.90603C22.5856 9.48003 23.1643 9.20183 23.7282 9.09999C25.6943 8.74851 27.6678 10.188 28.0354 12.2447C28.1087 12.652 28.0726 13.1054 27.9286 13.5897L27.8081 13.9971L28.0801 14.3238C28.5657 14.9062 28.9892 15.5359 29.342 16.1929C29.7704 16.9903 30.0884 17.815 30.2883 18.6434C30.7156 20.361 30.7044 22.1805 30.2585 23.9081C30.0375 24.7725 29.7145 25.6133 29.2985 26.4107C28.8787 27.2118 28.3782 27.9669 27.8118 28.6549C27.2356 29.3529 26.5947 29.9988 25.9104 30.5713C25.2347 31.1352 24.4883 31.6543 23.6909 32.1139C22.9222 32.5535 22.0975 32.9398 21.2418 33.2602C20.427 33.5645 19.5527 33.8154 18.6435 34.0042C18.4933 34.0352 18.3417 34.0638 18.1902 34.0911V34.0936Z" fill="#FAFAF8"/>
<path d="M30.4438 18.6074C30.2339 17.738 29.9023 16.9034 29.4825 16.1197C29.0652 15.3422 28.556 14.6156 27.9735 13.9574C28.1983 13.3625 28.2902 12.7638 28.1921 12.2186C27.8058 10.0613 25.687 8.59079 23.6998 8.946C22.9931 9.07268 22.2951 9.45893 21.7052 10.0004C21.5512 9.952 21.3972 9.90356 21.2419 9.85761C20.3887 9.61791 19.5168 9.43782 18.635 9.33846C16.8714 9.12484 15.0718 9.19936 13.3181 9.52849C12.4425 9.69615 11.5769 9.92716 10.7336 10.2252C9.89274 10.5295 9.07055 10.8897 8.28438 11.3231C7.60378 11.6957 6.95422 12.1242 6.33323 12.5924C5.67871 12.3701 5.00059 12.2931 4.38457 12.4024C2.3974 12.7576 0.920688 14.874 1.30694 17.03C1.3827 17.4511 1.57521 17.8634 1.85217 18.2509C1.70065 18.6173 1.56279 18.9911 1.44977 19.3724C1.18896 20.2443 1.03122 21.1497 0.992723 22.0625C0.955464 22.9754 1.03247 23.8945 1.23118 24.7874C1.42493 25.6817 1.73418 26.5523 2.14776 27.3708C2.56383 28.188 3.08297 28.9506 3.68037 29.6436C4.87515 31.0321 6.37794 32.135 8.01736 32.9261C9.65801 33.721 11.4378 34.2141 13.2461 34.4177C14.1502 34.5171 15.0631 34.5457 15.9722 34.5047C16.8814 34.46 17.7868 34.3432 18.6773 34.1607C19.5678 33.9756 20.4458 33.7284 21.2991 33.4093C22.1523 33.0901 22.9807 32.7051 23.7706 32.2517C24.5605 31.7972 25.3132 31.278 26.0124 30.693C26.7116 30.1093 27.355 29.4585 27.935 28.7568C28.5137 28.0538 29.018 27.29 29.439 26.4852C29.86 25.6792 30.1879 24.8272 30.4127 23.9491C30.866 22.1954 30.8747 20.3412 30.4438 18.6061V18.6074ZM30.3519 21.2565C30.296 22.1197 30.1246 22.9717 29.8588 23.7876C29.593 24.6049 29.2291 25.3873 28.787 26.1201C28.3473 26.8553 27.8282 27.5384 27.2556 28.1718C26.6843 28.8065 26.0509 29.384 25.379 29.9081C24.7058 30.4322 23.9904 30.9017 23.2428 31.3116C22.4976 31.7264 21.7164 32.0766 20.9128 32.366C20.1105 32.6566 19.2871 32.8901 18.45 33.0615C16.777 33.4117 15.0532 33.5161 13.3541 33.3571C11.6551 33.2018 9.97596 32.7771 8.42597 32.063C6.87846 31.3488 5.46012 30.3453 4.32992 29.076C3.76606 28.4413 3.27548 27.7433 2.87805 26.9932C2.48434 26.243 2.18626 25.442 1.99376 24.616C1.79628 23.7901 1.71307 22.9381 1.73418 22.0886C1.75778 21.2379 1.89192 20.3908 2.12417 19.5686C2.58742 17.9218 3.44936 16.3904 4.56341 15.0764C5.11858 14.4157 5.74329 13.8146 6.40899 13.2619C7.0809 12.7166 7.79504 12.2211 8.54892 11.7926C10.0517 10.9245 11.6986 10.3035 13.4001 9.92343C15.1028 9.54711 16.8652 9.4105 18.6127 9.56202C18.8313 9.57816 19.0486 9.60673 19.266 9.63157L19.5914 9.67752C19.6994 9.69243 19.8087 9.70857 19.9155 9.72969C20.349 9.79924 20.7774 9.89611 21.2022 10.0042C22.0505 10.2302 22.8838 10.5171 23.68 10.8909C23.8812 10.9804 24.0737 11.0847 24.2711 11.1828L24.5605 11.3405C24.6574 11.3927 24.753 11.4473 24.8462 11.5045C25.2262 11.7255 25.5926 11.969 25.9466 12.2298C26.3005 12.4894 26.6371 12.7738 26.9625 13.0681C27.2854 13.3662 27.5897 13.6829 27.8816 14.012C28.4529 14.6777 28.9484 15.4105 29.3372 16.1942C29.7271 16.9779 30.0116 17.8112 30.1842 18.6645C30.3519 19.519 30.4078 20.3921 30.3531 21.2552L30.3519 21.2565Z" fill="#404347"/>
<path d="M17.3198 21.6067C17.3856 21.9743 16.9994 22.3519 16.4566 22.45C15.9139 22.5469 15.4196 22.327 15.3537 21.9594C15.2879 21.5906 15.6742 21.213 16.2169 21.1149C16.7609 21.018 17.254 21.2378 17.3198 21.6067Z" fill="#404347"/>
<path d="M11.5384 22.0973C11.6986 22.9915 11.1037 23.846 10.2107 24.005C9.31652 24.1652 8.46204 23.5703 8.30182 22.6761C8.27077 22.5034 8.26829 22.3321 8.29065 22.1669C8.37386 21.5496 8.80607 21.018 9.41339 20.823C9.48295 20.8007 9.55622 20.7808 9.63074 20.7684C10.5237 20.6082 11.3782 21.2043 11.5384 22.0973Z" fill="#404347"/>
<path d="M9.75314 22.7364C10.1603 22.6635 10.4332 22.2853 10.3627 21.8917C10.2923 21.4981 9.90507 21.238 9.49793 21.3109C9.09079 21.3838 8.81787 21.762 8.88834 22.1556C8.95881 22.5493 9.346 22.8093 9.75314 22.7364Z" fill="white"/>
<path d="M24.1829 19.8332C24.3431 20.7274 23.747 21.5819 22.854 21.7421C21.9598 21.9023 21.1053 21.3074 20.9451 20.4132C20.8072 19.6419 21.232 18.8992 21.9263 18.6073C22.0355 18.5614 22.1523 18.5266 22.274 18.5042C23.049 18.3651 23.7942 18.7949 24.0836 19.4929C24.1283 19.5997 24.1618 19.7139 24.1829 19.8332Z" fill="#404347"/>
<path d="M22.3969 20.473C22.8041 20.4001 23.077 20.0219 23.0065 19.6283C22.9361 19.2346 22.5489 18.9746 22.1417 19.0475C21.7346 19.1204 21.4617 19.4986 21.5321 19.8922C21.6026 20.2859 21.9898 20.5459 22.3969 20.473Z" fill="white"/>
<path d="M21.2296 24.7613C20.472 24.2348 18.809 24.2385 17.9272 24.3577C16.9758 24.4856 16.1313 24.7427 15.2495 25.1476C14.5515 25.468 13.3368 26.1362 12.8624 26.8504C12.5022 27.3931 13.5343 28.5183 14.2695 29.1195C14.2 29.0623 14.1292 29.0027 14.0559 28.9381C14.5055 28.6636 15.0296 28.4773 15.5003 28.3805C16.4989 28.1768 17.3882 28.4488 18.0911 29.1828C18.3271 29.4287 18.7282 29.0797 18.491 28.8326C18.2613 28.5929 18.0116 28.3966 17.7471 28.2376C18.5382 27.3782 20.4484 27.2714 21.4382 27.9172C21.329 28.2066 21.1638 28.455 20.9663 28.6636C21.2594 28.3556 21.4854 27.9619 21.5575 27.4713C21.709 26.4455 21.9872 25.2867 21.2296 24.7601V24.7613Z" fill="#404347"/>
<path d="M21.4368 27.9184C20.4469 27.2726 18.5367 27.3794 17.7456 28.2389C18.0101 28.3978 18.2598 28.5928 18.4895 28.8338C18.7268 29.0822 18.3256 29.4299 18.0896 29.184C17.3867 28.4512 16.4974 28.1793 15.4989 28.3817C15.0282 28.4773 14.5028 28.6636 14.0544 28.9393C14.3736 29.2225 14.668 29.4361 14.8232 29.5007C16.3347 30.1379 18.1803 29.9689 18.4759 29.8485C18.7889 29.7218 19.7191 29.4982 20.3028 29.1753C20.7736 28.9145 21.2169 28.4997 21.4368 27.9184Z" fill="#E35160"/>
<path d="M8.69046 3.93208C8.1415 3.72219 7.55529 3.69983 6.97404 3.67499C6.98274 3.67002 6.99143 3.66381 7.00137 3.65884C7.18642 3.55203 8.03966 3.06642 8.04463 3.05276C8.06698 2.99314 7.66086 3.07884 7.56026 3.14094C7.30317 3.29619 7.04235 3.44398 6.78774 3.60171C7.03862 2.977 7.27957 2.34731 7.52175 1.71266C7.54784 1.6456 7.4522 1.60461 7.41867 1.66671C7.10693 2.24299 6.93306 2.88385 6.71074 3.49987C6.55549 2.71867 6.36796 1.94367 6.1593 1.17737C6.14937 1.14259 6.09596 1.16122 6.10341 1.196C6.2835 1.99832 6.42509 2.80685 6.55674 3.61662C5.94072 2.91738 5.30606 2.2492 4.81051 1.45061C4.77574 1.39472 4.67017 1.4444 4.70246 1.50649C5.1297 2.31627 5.75814 3.02419 6.43254 3.64518C5.59669 3.56942 4.82914 3.24527 4.02434 3.03165C3.97839 3.01923 3.95231 3.09002 3.99702 3.10865C4.69749 3.38809 5.40915 3.65512 6.15682 3.78056C6.25369 3.7967 6.35057 3.81037 6.44744 3.82154C5.85253 4.23637 5.35078 4.78656 4.68259 5.08588C4.64285 5.10327 4.66396 5.16288 4.70619 5.14798C5.23776 4.94802 5.66748 4.59033 6.11335 4.2463C6.25245 4.13949 6.39528 4.03889 6.54059 3.94326C6.2922 4.55928 6.01399 5.16412 5.76684 5.78139C5.75069 5.82113 5.81031 5.84845 5.82894 5.80995C6.11335 5.21629 6.37417 4.61765 6.62132 4.01405C6.71323 4.59654 6.80265 5.18027 6.89952 5.76276C6.91567 5.85839 7.06595 5.84473 7.05601 5.74785C6.99143 5.11444 6.89704 4.48352 6.78029 3.85632C7.40377 3.91097 8.02848 3.92339 8.64575 4.07988C8.73268 4.10223 8.77864 3.96561 8.69294 3.93332L8.69046 3.93208Z" fill="#E35160"/>
<path d="M6.50938 3.61542L6.26099 13.668C6.56403 14.3002 8.44811 14.13 10.5036 13.2805C12.5591 12.431 14.0134 11.2213 13.7824 10.5593L6.50938 3.61542Z" fill="#73C41D"/>
<g style="mix-blend-mode:screen">
<path d="M11.629 9.39926C11.7893 9.78552 12.2413 9.91096 12.6288 9.66132C12.6711 9.634 12.7083 9.60419 12.7456 9.57066L11.7247 8.5957C11.5719 8.8441 11.5235 9.14466 11.6278 9.39926H11.629Z" fill="#73C41D"/>
</g>
<g style="mix-blend-mode:screen">
<path d="M12.0485 11.5355C11.6399 11.7492 11.4325 12.2224 11.594 12.6086C11.6126 12.6533 11.635 12.6931 11.661 12.7316C12.215 12.431 12.6894 12.1143 13.0496 11.8075C12.8769 11.4486 12.446 11.3306 12.0498 11.5355H12.0485Z" fill="#73C41D"/>
</g>
<g style="mix-blend-mode:screen">
<path d="M6.46118 5.56775C6.67232 5.84099 7.06975 5.95277 7.42993 5.80373C7.77644 5.6609 7.9764 5.32308 7.9528 4.99396L7.26474 4.33695C7.13061 4.32826 6.98902 4.34565 6.85116 4.40278C6.69964 4.46612 6.57544 4.56299 6.48354 4.67974L6.46242 5.569L6.46118 5.56775Z" fill="#73C41D"/>
</g>
<g style="mix-blend-mode:screen">
<path d="M9.02951 7.39848C9.18973 7.78474 9.65671 7.93998 10.0653 7.72636C10.2268 7.64315 10.3522 7.51398 10.4367 7.36619L9.4021 6.37881C9.05187 6.61106 8.88047 7.04079 9.02951 7.39972V7.39848Z" fill="#73C41D"/>
</g>
<g style="mix-blend-mode:screen">
<path d="M6.54549 12.0758C6.99633 11.9776 7.22858 11.5703 7.06837 11.184C6.95162 10.9021 6.65976 10.7108 6.33436 10.6636L6.29834 12.0919C6.38155 12.0956 6.46352 12.0932 6.54425 12.0758H6.54549Z" fill="#73C41D"/>
</g>
<g style="mix-blend-mode:screen">
<path d="M10.0925 10.0998C9.93109 9.71229 9.4641 9.5558 9.03935 9.72968C8.61335 9.90604 8.39352 10.3482 8.55249 10.7344C8.71271 11.1207 9.19211 11.307 9.61811 11.1306C10.0429 10.9555 10.2515 10.4848 10.0925 10.0985V10.0998Z" fill="#73C41D"/>
</g>
<g style="mix-blend-mode:screen">
<path d="M6.89681 8.90748C7.33647 8.77086 7.55754 8.33244 7.39857 7.94494C7.24953 7.58601 6.82602 7.40096 6.41368 7.48541L6.37891 8.91493C6.54409 8.95964 6.72418 8.96213 6.89681 8.90748Z" fill="#73C41D"/>
</g>
<g style="mix-blend-mode:screen">
<path d="M9.2755 13.5413C9.11528 13.1538 8.63464 12.9663 8.19498 13.1029C7.7578 13.2408 7.52804 13.6469 7.68328 14.0319C8.15648 13.9922 8.71537 13.8816 9.31897 13.7015C9.31152 13.6481 9.29786 13.5935 9.2755 13.5413Z" fill="#73C41D"/>
</g>
<path d="M8.36879 4.76676C7.93658 4.36933 7.40004 4.13211 6.86723 3.89489C6.87717 3.89365 6.88835 3.89117 6.89828 3.88993C7.11066 3.85888 8.08189 3.72226 8.09058 3.71108C8.13281 3.66389 7.7242 3.59434 7.6087 3.61421C7.3131 3.66389 7.01627 3.70487 6.72068 3.75704C7.18394 3.26894 7.64099 2.77215 8.09928 2.27287C8.14771 2.21946 8.07444 2.14619 8.02103 2.19214C7.51927 2.61317 7.1206 3.14474 6.68715 3.63408C6.83122 2.85039 6.943 2.06049 7.03118 1.27183C7.0349 1.23582 6.97777 1.23333 6.97156 1.26935C6.8424 2.08161 6.67597 2.88517 6.49961 3.68624C6.18539 2.80816 5.84136 1.95492 5.67618 1.02841C5.665 0.963824 5.54701 0.971276 5.55446 1.03958C5.65258 1.94996 5.97549 2.83921 6.37417 3.66637C5.62526 3.28757 5.03159 2.70259 4.36216 2.20705C4.3249 2.17848 4.27398 2.23437 4.30876 2.2679C4.85771 2.78581 5.42033 3.2975 6.0674 3.68997C6.15185 3.74089 6.23631 3.78933 6.32201 3.83528C5.61656 4.0017 4.94714 4.3271 4.21437 4.3594C4.1709 4.36188 4.16841 4.42398 4.21313 4.42522C4.78195 4.43516 5.31228 4.26128 5.85378 4.10603C6.02269 4.05759 6.1916 4.01785 6.36299 3.98308C5.9047 4.46496 5.42281 4.92325 4.96576 5.40638C4.93596 5.43743 4.98191 5.48463 5.01296 5.45606C5.49733 5.00895 5.95935 4.54942 6.41267 4.07995C6.2835 4.65499 6.15185 5.23126 6.02517 5.80878C6.00406 5.90317 6.14937 5.94664 6.17545 5.85225C6.34933 5.23996 6.4934 4.61773 6.6176 3.99177C7.17773 4.2737 7.75277 4.51464 8.26943 4.88848C8.34146 4.94064 8.43585 4.83135 8.36755 4.76925L8.36879 4.76676Z" fill="#FFA9AF"/>
</svg>
