<svg width="36" height="40" viewBox="0 0 36 40" fill="none" xmlns="http://www.w3.org/2000/svg">
<path d="M30.2443 28.8056L26.2131 26.1181C26.885 23.6085 27.4383 20.3184 27.2209 16.6626C26.8158 9.89461 23.7726 4.19366 18.4274 0.182238C18.4076 0.172357 18.3879 0.172359 18.378 0.152598C18.3187 0.113077 18.2594 0.0933157 18.2001 0.0636747C18.1409 0.043914 18.0915 0.0142716 18.0322 0.00439126C17.9729 -0.00548908 17.9136 0.00439126 17.8444 0.00439126C17.7852 0.00439126 17.716 0.00439126 17.6567 0.00439126C17.5974 0.0142716 17.5382 0.043914 17.4887 0.0636747C17.4295 0.0933157 17.3702 0.113077 17.3109 0.152598C17.2911 0.162478 17.2714 0.162477 17.2615 0.182238C7.53925 7.47393 7.40092 18.4905 9.45603 26.128L5.44462 28.8056C5.16797 28.9933 5 29.2996 5 29.6257V38.0239C5 38.3994 5.20749 38.7353 5.54342 38.9033C5.68174 38.9725 5.82995 39.012 5.98803 39.012C6.19552 39.012 6.40301 38.9428 6.58085 38.8144L12.5091 34.3682C12.9438 34.0422 13.0327 33.4197 12.7067 32.985C12.3806 32.5502 11.7582 32.4613 11.3234 32.7874L6.97607 36.0479V30.1592L10.0587 28.1041C10.365 28.9834 10.6812 29.7936 11.0171 30.5346C11.1851 30.9002 11.5408 31.1077 11.9162 31.1077C12.0546 31.1077 12.1929 31.0781 12.3312 31.0188C12.8252 30.7915 13.0426 30.2086 12.8153 29.7047C12.4893 28.9933 5.13833 12.4437 17.8444 2.23735C30.5506 12.4437 23.1996 28.9933 22.8735 29.7047C22.6463 30.1987 22.8735 30.7915 23.3577 31.0188C23.4861 31.0781 23.6343 31.1077 23.7726 31.1077C24.1481 31.1077 24.5038 30.8903 24.6718 30.5346C24.8891 30.0703 25.2448 29.2304 25.6203 28.1041L28.7128 30.1592V36.0479L24.3655 32.7874C23.9307 32.4613 23.3083 32.5502 22.9822 32.985C22.6562 33.4197 22.7451 34.0422 23.1798 34.3682L29.108 38.8144C29.2859 38.9428 29.4934 39.012 29.7008 39.012C29.8491 39.012 30.0071 38.9725 30.1455 38.9033C30.4814 38.7353 30.6889 38.3895 30.6889 38.0239V29.6257C30.6889 29.2996 30.5209 28.9834 30.2443 28.8056Z" fill="#626467"/>
<path d="M17.8346 26.1675C17.2912 26.1675 16.8466 26.6121 16.8466 27.1555V39.0119C16.8466 39.5553 17.2912 40 17.8346 40C18.378 40 18.8226 39.5553 18.8226 39.0119V27.1555C18.8226 26.6121 18.378 26.1675 17.8346 26.1675Z" fill="#626467"/>
<path d="M17.8346 10.359C15.651 10.359 13.8824 12.1276 13.8824 14.3111C13.8824 16.4947 15.651 18.2633 17.8346 18.2633C20.0181 18.2633 21.7867 16.4947 21.7867 14.3111C21.7867 12.1276 20.0181 10.359 17.8346 10.359ZM17.8346 16.2872C16.7477 16.2872 15.8585 15.398 15.8585 14.3111C15.8585 13.2243 16.7477 12.3351 17.8346 12.3351C18.9214 12.3351 19.8107 13.2243 19.8107 14.3111C19.8107 15.398 18.9214 16.2872 17.8346 16.2872Z" fill="#626467"/>
</svg>
