<svg width="40" height="41" viewBox="0 0 40 41" fill="none" xmlns="http://www.w3.org/2000/svg">
<path d="M38.6201 20.98C34.8501 20.26 32.3601 19.16 30.8001 17.53C30.4901 17.2 29.9101 17.2 29.5901 17.53C28.0301 19.16 25.5401 20.25 21.7601 20.98C21.3701 21.06 21.0801 21.4 21.0801 21.8V30.35C21.0801 33.75 22.9701 36.79 26.0201 38.29L29.8201 40.16C29.9301 40.22 30.0601 40.25 30.1901 40.25C30.3201 40.25 30.4501 40.22 30.5601 40.16L34.3601 38.29C37.4101 36.79 39.3001 33.75 39.3001 30.35V21.8C39.3001 21.4 39.0101 21.05 38.6201 20.98ZM37.6201 22.49V30.36C37.6201 33.11 36.0901 35.58 33.6201 36.8L30.1901 38.49L26.7601 36.8C24.2901 35.58 22.7601 33.12 22.7601 30.36V22.49C26.1201 21.78 28.4901 20.75 30.1901 19.27C31.8901 20.75 34.2601 21.78 37.6201 22.49Z" fill="currentcolor"/>
<path d="M27.7401 28.43C27.4101 28.1 26.8801 28.1 26.5601 28.43C26.4001 28.59 26.3101 28.8 26.3101 29.02C26.3101 29.24 26.4001 29.45 26.5601 29.61L29.1301 32.18C29.2901 32.34 29.5001 32.43 29.7201 32.43C29.9401 32.43 30.1501 32.34 30.3101 32.18L35.0501 27.44C35.3801 27.11 35.3801 26.58 35.0501 26.25C34.7201 25.92 34.1901 25.92 33.8601 26.25L29.7101 30.4L27.7301 28.42L27.7401 28.43Z" fill="currentcolor"/>
<path d="M23.31 38.58H1.68V1.67999H29.36V15.35C29.36 15.81 29.74 16.19 30.2 16.19C30.66 16.19 31.04 15.81 31.04 15.35V0.839996C31.04 0.379996 30.66 0 30.2 0H0.84C0.38 0 0 0.379996 0 0.839996V39.41C0 39.87 0.38 40.25 0.84 40.25H23.31C23.77 40.25 24.15 39.87 24.15 39.41C24.15 38.95 23.77 38.57 23.31 38.57V38.58Z" fill="currentcolor"/>
<path d="M5.16007 19.2H17.5801C18.0401 19.2 18.4201 18.82 18.4201 18.36C18.4201 17.9 18.0401 17.52 17.5801 17.52H5.16007C4.70007 17.52 4.32007 17.9 4.32007 18.36C4.32007 18.82 4.70007 19.2 5.16007 19.2Z" fill="currentcolor"/>
<path d="M5.16007 22.74H19.1201C19.5801 22.74 19.9601 22.36 19.9601 21.9C19.9601 21.44 19.5801 21.06 19.1201 21.06H5.16007C4.70007 21.06 4.32007 21.44 4.32007 21.9C4.32007 22.36 4.70007 22.74 5.16007 22.74Z" fill="currentcolor"/>
<path d="M5.16007 7.45001H17.5801C18.0401 7.45001 18.4201 7.07002 18.4201 6.61002C18.4201 6.15002 18.0401 5.77002 17.5801 5.77002H5.16007C4.70007 5.77002 4.32007 6.15002 4.32007 6.61002C4.32007 7.07002 4.70007 7.45001 5.16007 7.45001Z" fill="currentcolor"/>
<path d="M26.7101 10.1599C26.7101 9.69994 26.3301 9.31995 25.8701 9.31995H5.16007C4.70007 9.31995 4.32007 9.69994 4.32007 10.1599C4.32007 10.6199 4.70007 11 5.16007 11H25.8701C26.3301 11 26.7101 10.6199 26.7101 10.1599Z" fill="currentcolor"/>
<path d="M5.16007 30.94H17.5801C18.0401 30.94 18.4201 30.5599 18.4201 30.0999C18.4201 29.6399 18.0401 29.2599 17.5801 29.2599H5.16007C4.70007 29.2599 4.32007 29.6399 4.32007 30.0999C4.32007 30.5599 4.70007 30.94 5.16007 30.94Z" fill="currentcolor"/>
<path d="M5.16007 34.48H19.6801C20.1401 34.48 20.5201 34.1 20.5201 33.64C20.5201 33.18 20.1401 32.8 19.6801 32.8H5.16007C4.70007 32.8 4.32007 33.18 4.32007 33.64C4.32007 34.1 4.70007 34.48 5.16007 34.48Z" fill="currentcolor"/>
</svg>
