<svg width="32" height="41" viewBox="0 0 32 41" fill="none" xmlns="http://www.w3.org/2000/svg">
<path d="M31.11 6.70999C24.14 5.36999 19.53 3.33 16.6 0.279999C16.43 0.0999988 16.19 0 15.93 0C15.67 0 15.43 0.0999988 15.26 0.279999C12.33 3.33 7.72 5.36999 0.75 6.70999C0.31 6.78999 0 7.18 0 7.62V23.14C0 29.07 3.31 34.39 8.63 37.01L15.53 40.41C15.66 40.47 15.8 40.51 15.94 40.51C16.08 40.51 16.22 40.48 16.35 40.41L23.25 37.01C28.57 34.39 31.88 29.07 31.88 23.14V7.62C31.88 7.17 31.56 6.78999 31.13 6.70999H31.11ZM30 8.39V23.14C30 28.36 27.09 33.04 22.41 35.34L15.93 38.54L9.45 35.34C4.77 33.03 1.86 28.36 1.86 23.14V8.39C8.35 7.06 12.84 5.1 15.94 2.23C19.04 5.1 23.52 7.06 30.02 8.39H30Z" fill="currentcolor"/>
<path d="M15.3701 4.33002C12.5301 6.47002 8.7601 8.08001 3.8201 9.24001C3.4001 9.34001 3.1001 9.71001 3.1001 10.15V23.15C3.1001 27.89 5.7401 32.14 9.9901 34.23L15.5101 36.95C15.6401 37.01 15.7801 37.05 15.9201 37.05C16.0601 37.05 16.2001 37.02 16.3301 36.95L21.8501 34.23C26.1001 32.13 28.7401 27.89 28.7401 23.15V10.15C28.7401 9.72001 28.4501 9.34001 28.0201 9.24001C23.0901 8.08001 19.3101 6.48002 16.4701 4.33002C16.1401 4.08002 15.6801 4.08002 15.3501 4.33002H15.3701ZM15.9301 6.22002C18.7601 8.22002 22.3501 9.74001 26.8901 10.87V23.14C26.8901 27.17 24.6501 30.77 21.0301 32.55L15.9201 35.07L10.8101 32.55C7.2001 30.77 4.9501 27.16 4.9501 23.14V10.87C9.5001 9.74001 13.0901 8.21002 15.9101 6.22002H15.9301Z" fill="currentcolor"/>
<path d="M11.2599 27.91H20.5999C21.6099 27.91 22.4299 27.09 22.4299 26.08V19.1C22.4299 18.09 21.6099 17.27 20.5999 17.27H19.9099V16.44C19.9099 14.25 18.1199 12.46 15.9299 12.46C13.7399 12.46 11.9499 14.25 11.9499 16.44V17.27H11.2599C10.2499 17.27 9.42993 18.09 9.42993 19.1V26.08C9.42993 27.09 10.2499 27.91 11.2599 27.91ZM15.9299 14.32C17.0999 14.32 18.0499 15.27 18.0499 16.44V17.27H13.8099V16.44C13.8099 15.27 14.7599 14.32 15.9299 14.32ZM11.2599 19.13H18.9799L20.5799 19.1L20.6099 26.05L11.2999 26.08L11.2699 19.13H11.2599Z" fill="currentcolor"/>
</svg>
