<svg width="51" height="50" viewBox="0 0 51 50" fill="none" xmlns="http://www.w3.org/2000/svg">
  <path
    d="M48.5103 41.3217L40.9618 33.7632C43.0614 30.3839 44.2711 26.3947 44.2711 22.1356C44.2711 9.92801 34.3431 0 22.1356 0C9.92801 0 0 9.92801 0 22.1356C0 34.3431 9.92801 44.2711 22.1356 44.2711C26.3947 44.2711 30.3839 43.0514 33.7633 40.9618L41.3217 48.5103C42.3115 49.5001 43.6113 50 44.921 50C46.2308 50 47.5205 49.5001 48.5203 48.5103C50.4999 46.5307 50.4999 43.3013 48.5203 41.3217H48.5103ZM1.92961 22.1356C1.92961 10.9878 10.9978 1.92961 22.1356 1.92961C33.2733 1.92961 42.3415 10.9978 42.3415 22.1356C42.3415 33.2733 33.2733 42.3415 22.1356 42.3415C10.9978 42.3415 1.92961 33.2733 1.92961 22.1356ZM47.1506 47.1506C45.9208 48.3803 43.9112 48.3803 42.6815 47.1506L35.3829 39.852C37.0726 38.5823 38.5823 37.0726 39.852 35.3829L47.1506 42.6815C48.3803 43.9112 48.3803 45.9208 47.1506 47.1506Z"
    fill="currentColor" />
  <path
    d="M22.1456 6.27831C19.3562 6.27831 16.6167 7.00816 14.2172 8.39788C13.7573 8.66783 13.5973 9.24771 13.8673 9.70762C14.1372 10.1675 14.7171 10.3275 15.177 10.0576C17.2866 8.8378 19.6961 8.19792 22.1456 8.19792C29.8341 8.19792 36.0828 14.4467 36.0828 22.1351C36.0828 29.8236 29.8341 36.0724 22.1456 36.0724C14.4571 36.0724 8.20839 29.8236 8.20839 22.1351C8.20839 19.0258 9.20819 16.0763 11.1078 13.6168C11.4278 13.1969 11.3578 12.597 10.9378 12.2671C10.5179 11.9472 9.91806 12.0172 9.58812 12.4371C7.42855 15.2365 6.27878 18.5858 6.27878 22.1251C6.27878 30.8734 13.3974 37.982 22.1356 37.982C30.8739 37.982 37.9924 30.8634 37.9924 22.1251C37.9924 13.3869 30.8739 6.26831 22.1356 6.26831L22.1456 6.27831Z"
    fill="currentColor" />
  <path
    d="M18.0764 25.1353L16.6367 27.4149C17.2966 28.1347 18.0664 28.7146 18.9362 29.1545C19.8161 29.5744 20.7459 29.8344 21.7357 29.9343V31.9639H23.0954V29.9843C24.1552 29.9243 25.055 29.6844 25.8149 29.2745C26.5747 28.8646 27.1546 28.3147 27.5645 27.6248C27.9844 26.915 28.1944 26.1051 28.1944 25.1753C28.1944 24.0155 27.8744 23.1057 27.2446 22.4658C26.6247 21.806 25.5949 21.3161 24.1752 21.0061L23.0954 20.7962V17.0469C23.6553 17.1569 24.2152 17.3469 24.8051 17.6168C25.3849 17.8868 25.9948 18.2367 26.6347 18.6766L27.8145 16.2071C27.1246 15.6872 26.3747 15.2773 25.5649 14.9573C24.7551 14.6374 23.9352 14.4374 23.1054 14.3475V12.3179H21.7457V14.2775C20.7759 14.3075 19.916 14.5174 19.1862 14.9174C18.4663 15.3073 17.9164 15.8472 17.5165 16.547C17.1366 17.2369 16.9466 18.0567 16.9466 18.9965C16.9466 20.2163 17.2266 21.1661 17.7965 21.826C18.3663 22.4858 19.3162 22.9557 20.6359 23.2357L21.7357 23.4956V27.2849C20.3659 27.0349 19.1462 26.3151 18.0764 25.1453V25.1353ZM23.0954 23.6256L23.3753 23.6956C23.9452 23.7856 24.3851 23.9056 24.6951 24.0455C25.005 24.1855 25.215 24.3655 25.325 24.5854C25.4449 24.8054 25.5049 25.0953 25.5049 25.4552C25.5049 26.0051 25.285 26.455 24.8351 26.795C24.4051 27.1249 23.8153 27.3249 23.0854 27.3849V23.6156L23.0954 23.6256ZM21.4757 20.5862C20.9858 20.4962 20.6059 20.3763 20.316 20.2363C20.036 20.0963 19.8261 19.9064 19.6861 19.6664C19.5661 19.4165 19.5061 19.0965 19.5061 18.7266C19.5061 18.1967 19.7061 17.7668 20.116 17.4568C20.5359 17.1469 21.0758 16.9669 21.7357 16.9369V20.6062L21.4757 20.5862Z"
    fill="currentColor" />
</svg>