<svg width="87" height="90" viewBox="0 0 87 90" fill="none" xmlns="http://www.w3.org/2000/svg">
<path d="M5.55832 34.2969L9.06472 40.9988C9.21082 41.2717 9.41536 41.6053 9.64912 41.9085C9.766 42.4241 10.0874 42.8789 10.6134 43.0912C10.8764 43.3641 11.1101 43.6067 11.3439 43.7887L13.5062 45.5475C13.7107 45.7295 13.9445 46.2753 13.9152 46.5483L13.0679 54.3418C12.9218 55.6761 13.4769 57.3137 14.3828 58.2841L16.808 60.801C17.1587 61.165 17.6262 62.0444 17.7431 62.5902L19.3502 70.1109C19.5839 71.2026 20.3144 72.6582 21.0157 73.4769L29.957 83.6662C14.9087 77.9044 4.12654 62.8328 4.12654 45.214C4.12654 41.4233 4.62328 37.7843 5.55832 34.2969ZM24.3468 9.49102L30.6291 17.1329L26.3337 18.5885C25.0773 19.0131 23.8793 20.2868 23.4994 21.5907L21.5709 28.1106L17.6262 27.0492C16.0483 26.6247 14.3828 27.5344 13.8276 29.1113L10.9056 37.6024L6.96088 30.1121C10.3212 21.3481 16.5158 14.0701 24.376 9.49102M31.944 6.09461L36.8822 12.008C37.6711 12.9784 38.8107 13.5243 39.9795 13.5243C41.1483 13.5243 42.2879 12.9481 43.0768 11.9777L49.0085 4.66933C51.4922 5.03324 53.8882 5.60941 56.1966 6.42819L55.4953 7.18632C54.5018 8.21737 54.0927 9.9459 54.4726 11.3409L55.3492 14.434C55.4369 14.7676 55.3492 15.4954 55.1447 15.7683L52.1058 20.2867C51.3168 21.4998 51.2 23.2889 51.8428 24.5626L52.4564 25.8059C53.0993 27.0492 54.5018 28.0196 55.8459 28.1409L59.9075 28.5048C59.9075 28.5048 60.1121 28.5048 60.1997 28.5048C61.4854 28.5048 62.888 27.8074 63.6477 26.7763L66.5989 22.7734C66.5989 22.7734 67.0372 22.5308 67.1833 22.5915L78.6376 26.4427C79.4265 28.05 80.157 29.7178 80.7414 31.4464L71.8293 32.0832C71.2157 32.1135 70.1053 31.9922 69.4917 31.8103L62.5081 29.6269C61.164 29.2023 59.4984 29.6269 58.505 30.6882L54.4142 34.9338C53.5084 35.8738 52.9532 37.5114 53.07 38.8457L53.3622 42.0298C53.4791 43.2732 54.1804 44.7591 55.057 45.6082L56.5765 47.0941C57.5699 48.0645 59.2355 48.5194 60.5504 48.1555L64.0275 47.1851C64.0275 47.1851 64.5243 47.2761 64.6119 47.3974L71.0988 57.0104C71.3033 57.3137 71.4494 58.1021 71.391 58.4963L69.9008 65.6227C69.6378 66.8661 69.9008 68.534 70.5728 69.6256L72.589 72.9311C65.3717 81.0582 55.0278 86.1528 43.5735 86.1528C40.3009 86.1528 37.1159 85.7283 34.0478 84.9398C34.3985 84.7275 34.6907 84.394 34.9244 84.0301L37.4666 79.8149C38.1971 78.6322 38.2847 76.843 37.6711 75.5694L35.3627 70.7477C35.2751 70.5961 35.3627 70.1715 35.4504 70.0199L37.4958 67.5939C38.1678 66.7751 38.9276 65.4105 39.2198 64.3794L40.6223 59.5577C41.0898 57.9202 40.2132 56.1613 38.6646 55.5851C36.0932 54.6754 33.1128 53.523 31.944 52.9469C31.8271 52.3404 31.6226 51.3093 31.1843 49.5504C30.8921 48.3374 29.957 46.9728 28.9635 46.245L22.4475 41.6659C21.2787 40.8471 19.467 40.8168 18.269 41.6053L15.7561 43.2732C15.7561 43.2732 15.5808 43.0912 15.4639 43.0306L13.3016 41.2717C13.3016 41.2717 13.1263 41.1201 13.0386 41.0291L16.808 30.2334L20.7527 31.2948C22.3306 31.7193 24.0254 30.7489 24.4929 29.1417L26.4506 22.6218C26.5383 22.3185 27.0058 21.8333 27.298 21.7424L32.4115 20.0138C33.2881 19.7106 33.9017 19.0737 34.1355 18.2246C34.3692 17.3755 34.1355 16.4961 33.5511 15.7683L27.2103 8.03542C28.7298 7.30762 30.3077 6.67079 31.9148 6.15526M43.6028 4.33576C44.1287 4.33576 44.6839 4.33576 45.2099 4.36608L40.6808 9.9459C40.4762 10.1885 40.2132 10.3401 39.9503 10.3401C39.7165 10.3704 39.4243 10.2188 39.2198 9.9459L35.2751 5.24551C37.9633 4.63901 40.7392 4.33576 43.5735 4.33576M76.2123 22.2882L68.1476 19.5589C66.745 19.1041 65.021 19.6499 64.1152 20.8629L61.164 24.8658C60.9887 25.1084 60.4335 25.351 60.1705 25.3207L56.1089 24.9568C55.8167 24.9568 55.32 24.5929 55.2031 24.32L54.5895 23.0767C54.4726 22.8644 54.5018 22.3489 54.6479 22.1366L57.6868 17.6181C58.4173 16.5264 58.6803 14.7979 58.3297 13.4939L57.453 10.4008C57.3946 10.1582 57.5115 9.64265 57.6868 9.4607L59.3816 7.70184C66.219 10.8253 72.063 15.8896 76.2415 22.2276M74.7221 70.3231L73.2318 67.8668C73.0273 67.5332 72.8812 66.6841 72.9689 66.2899L74.4591 59.1635C74.7221 57.8898 74.4007 56.1916 73.6702 55.1303L67.2125 45.5172C66.3652 44.2739 64.6704 43.6371 63.2678 44.0313L59.7906 45.0017C59.5277 45.0623 58.9725 44.9107 58.7679 44.7288L57.2485 43.2428C56.9271 42.9396 56.5472 42.1208 56.518 41.6659L56.1966 38.4818C56.1674 38.1179 56.4011 37.4204 56.6349 37.1778L60.7257 32.9323C60.901 32.7504 61.3977 32.6291 61.6315 32.6897L68.6151 34.8731C69.5793 35.1764 71.0696 35.3583 72.063 35.2673L81.7057 34.5699C82.5823 37.9359 83.0498 41.484 83.0498 45.1533C83.0498 54.6147 79.9232 63.318 74.7221 70.2625M32.5868 72.1123L34.8952 76.934C35.0121 77.1766 34.9829 77.7831 34.8368 78.0257L32.616 81.7254L23.4117 71.2026C23.0611 70.778 22.5936 69.8682 22.4767 69.3224L20.8696 61.8018C20.6358 60.6798 19.8761 59.2241 19.0872 58.4357L16.6619 55.9187C16.4282 55.6761 16.1944 54.9786 16.2236 54.6451L17.071 46.8515C17.071 46.6392 17.071 46.3966 17.071 46.154L19.9346 44.2739C20.1099 44.1526 20.5482 44.1829 20.6943 44.2739L27.2103 48.8833C27.561 49.1259 28.0577 49.8537 28.1454 50.2782C28.496 51.7339 28.9051 53.5534 28.9343 53.8566C28.9343 55.0696 28.9343 55.5245 37.6127 58.557L36.2101 63.3787C36.0348 63.9549 35.5088 64.9253 35.129 65.3801L33.0836 67.8061C32.1485 68.9282 31.9148 70.778 32.5576 72.1123M43.5735 89.337C56.3719 89.337 67.8554 83.4539 75.6571 74.1441L75.8324 73.9318C82.2316 66.1989 86.1179 56.1613 86.1179 45.1836C86.1179 37.6933 84.3062 30.6276 81.1213 24.4413L81.0336 24.2897C76.3584 15.3134 68.7904 8.18704 59.6445 4.30543C59.5861 4.30543 59.5277 4.24478 59.44 4.21446C54.531 2.15235 49.1546 1 43.5443 1C39.5412 1 35.6841 1.57618 32.0024 2.66788C31.944 2.66788 31.8855 2.6982 31.8271 2.72853C18.9119 6.57981 8.4511 16.6781 3.74668 29.6269C3.74668 29.6875 3.68824 29.7178 3.68824 29.7785C1.96426 34.6002 1 39.7858 1 45.214C1 69.565 20.1099 89.3976 43.5735 89.3976" fill="currentcolor"/>
<path d="M5.55832 34.297L9.06472 40.9988C9.21082 41.2717 9.41536 41.6053 9.64912 41.9085C9.766 42.4241 10.0874 42.8789 10.6134 43.0912C10.8764 43.3641 11.1101 43.6068 11.3439 43.7887L13.5062 45.5476C13.7107 45.7295 13.9445 46.2754 13.9152 46.5483L13.0679 54.3418C12.9218 55.6761 13.4769 57.3137 14.3828 58.2841L16.808 60.8011C17.1587 61.165 17.6262 62.0444 17.7431 62.5902L19.3502 70.1109C19.5839 71.2026 20.3144 72.6582 21.0157 73.4769L29.957 83.6662C14.9087 77.9044 4.12654 62.8328 4.12654 45.214C4.12654 41.4233 4.62328 37.7843 5.55832 34.297ZM24.3468 9.49104L30.6291 17.133L26.3337 18.5886C25.0773 19.0131 23.8793 20.2868 23.4994 21.5907L21.5709 28.1106L17.6262 27.0493C16.0483 26.6247 14.3828 27.5345 13.8276 29.1114L10.9056 37.6024L6.96088 30.1121C10.3212 21.3481 16.5158 14.0701 24.376 9.49104H24.3468ZM31.9148 6.09463L36.8529 12.008C37.6419 12.9784 38.7815 13.5243 39.9503 13.5243C41.1191 13.5243 42.2586 12.9481 43.0476 11.9777L48.9792 4.66935C51.4629 5.03325 53.859 5.60943 56.1674 6.42821L55.4661 7.18633C54.4726 8.21739 54.0635 9.94592 54.4434 11.3409L55.32 14.434C55.4076 14.7676 55.32 15.4954 55.1154 15.7683L52.0766 20.2868C51.2876 21.4998 51.1707 23.289 51.8136 24.5626L52.4272 25.8059C53.07 27.0493 54.4726 28.0197 55.8167 28.141L59.8783 28.5049C59.8783 28.5049 60.0828 28.5049 60.1705 28.5049C61.4562 28.5049 62.8587 27.8074 63.6185 26.7763L66.5697 22.7734C66.5697 22.7734 67.008 22.5308 67.1541 22.5915L78.6083 26.4428C79.3973 28.05 80.1278 29.7179 80.7122 31.4464L71.8001 32.0832C71.1864 32.1135 70.0761 31.9922 69.4625 31.8103L62.4789 29.6269C61.1348 29.2023 59.4692 29.6269 58.4757 30.6883L54.3849 34.9338C53.4791 35.8739 52.9239 37.5114 53.0408 38.8457L53.333 42.0298C53.4499 43.2732 54.1512 44.7591 55.0278 45.6082L56.5472 47.0941C57.5407 48.0645 59.2062 48.5194 60.5211 48.1555L63.9983 47.1851C63.9983 47.1851 64.4951 47.2761 64.5827 47.3974L71.0696 57.0104C71.2741 57.3137 71.4202 58.1021 71.3618 58.4964L69.8715 65.6228C69.6086 66.8661 69.8715 68.534 70.5436 69.6257L72.5598 72.9311C65.3424 81.0582 54.9986 86.1528 43.5443 86.1528C40.2717 86.1528 37.0867 85.7283 34.0186 84.9398C34.3692 84.7276 34.6614 84.394 34.8952 84.0301L37.4373 79.8149C38.1678 78.6322 38.2555 76.843 37.6419 75.5694L35.3335 70.7477C35.2458 70.5961 35.3335 70.1715 35.4212 70.0199L37.4666 67.5939C38.1386 66.7751 38.8983 65.4105 39.1905 64.3794L40.5931 59.5577C41.0606 57.9202 40.184 56.1613 38.6354 55.5852C36.064 54.6754 33.0836 53.5231 31.9148 52.9469C31.7979 52.3404 31.5933 51.3093 31.155 49.5505C30.8628 48.3375 29.9278 46.9728 28.9343 46.245L22.4183 41.6659C21.2495 40.8472 19.4378 40.8168 18.2398 41.6053L15.7269 43.2732C15.7269 43.2732 15.5516 43.0912 15.4347 43.0306L13.2724 41.2717C13.2724 41.2717 13.0971 41.1201 13.0094 41.0291L16.7788 30.2334L20.7235 31.2948C22.3014 31.7193 23.9961 30.7489 24.4637 29.1417L26.4214 22.6218C26.5091 22.3185 26.9766 21.8333 27.2688 21.7424L32.3823 20.0138C33.2589 19.7106 33.8725 19.0738 34.1063 18.2247C34.34 17.3756 34.1063 16.4961 33.5219 15.7683L27.1811 8.03544C28.7006 7.30763 30.2784 6.67081 31.8855 6.15528L31.9148 6.09463ZM43.6028 4.27513C44.1287 4.27513 44.6839 4.27513 45.2099 4.30545L40.6808 9.88527C40.4762 10.1279 40.2132 10.2795 39.9503 10.2795C39.7165 10.3098 39.4243 10.1582 39.2198 9.88527L35.2751 5.18488C37.9633 4.57838 40.7392 4.27513 43.5735 4.27513H43.6028ZM76.2415 22.2276L68.1768 19.4983C66.7742 19.0434 65.0502 19.5893 64.1444 20.8023L61.1932 24.8052C61.0179 25.0478 60.4627 25.2904 60.1997 25.2601L56.1381 24.8962C55.8459 24.8962 55.3492 24.5323 55.2323 24.2594L54.6187 23.016C54.5018 22.8037 54.531 22.2882 54.6771 22.0759L57.716 17.5575C58.4465 16.4658 58.7095 14.7373 58.3589 13.4333L57.4823 10.3401C57.4238 10.0975 57.5407 9.58202 57.716 9.40007L59.4108 7.64121C66.2483 10.7647 72.0923 15.829 76.2707 22.1669L76.2415 22.2276ZM74.7221 70.3231L73.2318 67.8668C73.0273 67.5332 72.8812 66.6841 72.9689 66.2899L74.4591 59.1635C74.7221 57.8899 74.4006 56.1917 73.6701 55.1303L67.2125 45.5172C66.3651 44.2739 64.6704 43.6371 63.2678 44.0313L59.7906 45.0017C59.5277 45.0624 58.9725 44.9107 58.7679 44.7288L57.2485 43.2429C56.9271 42.9396 56.5472 42.1208 56.518 41.6659L56.1966 38.4818C56.1674 38.1179 56.4011 37.4204 56.6349 37.1778L60.7257 32.9323C60.901 32.7504 61.3977 32.6291 61.6315 32.6897L68.6151 34.8731C69.5793 35.1764 71.0696 35.3583 72.063 35.2674L81.7056 34.5699C82.5822 37.936 83.0498 41.484 83.0498 45.1533C83.0498 54.6148 79.9232 63.3181 74.7221 70.2625V70.3231ZM32.5868 72.173L34.8952 76.9947C35.0121 77.2373 34.9829 77.8438 34.8368 78.0864L32.616 81.786L23.4117 71.2632C23.0611 70.8387 22.5936 69.9289 22.4767 69.3831L20.8696 61.8624C20.6358 60.7404 19.8761 59.2848 19.0872 58.4964L16.6619 55.9794C16.4282 55.7368 16.1944 55.0393 16.2236 54.7057L17.071 46.9122C17.071 46.6999 17.071 46.4573 17.071 46.2147L19.9346 44.3346C20.1099 44.2133 20.5482 44.2436 20.6943 44.3346L27.2103 48.944C27.561 49.1866 28.0577 49.9144 28.1454 50.3389C28.496 51.7945 28.9051 53.614 28.9343 53.9173C28.9343 55.1303 28.9343 55.5852 37.6127 58.6177L36.2101 63.4394C36.0348 64.0155 35.5088 64.9859 35.129 65.4408L33.0836 67.8668C32.1485 68.9888 31.9148 70.8387 32.5576 72.173H32.5868ZM43.6028 89.3976C56.4011 89.3976 67.8846 83.5145 75.6863 74.2048L75.8616 73.9925C82.2608 66.2596 86.1471 56.222 86.1471 45.2443C86.1471 37.754 84.3354 30.6883 81.1505 24.502L81.0628 24.3503C76.3876 15.3741 68.8196 8.24771 59.6738 4.3661C59.6153 4.3661 59.5569 4.30545 59.4692 4.27513C54.5603 2.21302 49.1838 1.06067 43.5735 1.06067C39.5704 1.06067 35.7134 1.63685 32.0316 2.72855C31.9732 2.72855 31.9148 2.75887 31.8563 2.7892C18.9119 6.57983 8.4511 16.6781 3.74668 29.6269C3.74668 29.6875 3.68824 29.7179 3.68824 29.7785C1.96426 34.6002 1 39.7858 1 45.214C1 69.565 20.1099 89.3976 43.5735 89.3976H43.6028Z" stroke="currentcolor" stroke-width="0.727987" stroke-miterlimit="10"/>
</svg>
