<svg width="38" height="38" viewBox="0 0 38 38" fill="none" xmlns="http://www.w3.org/2000/svg">
<path d="M2.92659 14.5602L4.40858 17.2895C4.47033 17.4007 4.55678 17.5365 4.65557 17.66C4.70497 17.87 4.84082 18.0552 5.06312 18.1417C5.17427 18.2528 5.27307 18.3516 5.37187 18.4257L6.28576 19.142C6.37221 19.2161 6.47101 19.4384 6.45866 19.5496L6.10051 22.7235C6.03876 23.2669 6.27341 23.9338 6.65626 24.329L7.6813 25.354C7.8295 25.5022 8.0271 25.8604 8.0765 26.0827L8.75575 29.1455C8.85455 29.59 9.16329 30.1828 9.45969 30.5163L13.2388 34.6659C6.87856 32.3194 2.32144 26.1815 2.32144 19.0062C2.32144 17.4624 2.53139 15.9804 2.92659 14.5602ZM10.8676 4.45798L13.5228 7.57015L11.7074 8.16295C11.1763 8.33585 10.67 8.85455 10.5094 9.38559L9.69434 12.0408L8.0271 11.6086C7.36021 11.4357 6.65626 11.8062 6.42161 12.4484L5.18662 15.9063L3.51938 12.8559C4.93962 9.28679 7.5578 6.32281 10.8799 4.45798M14.0786 3.07479L16.1657 5.48302C16.4991 5.87822 16.9808 6.10051 17.4748 6.10051C17.9688 6.10051 18.4504 5.86587 18.7839 5.47067L21.2909 2.49434C22.3407 2.64254 23.3533 2.87719 24.329 3.21063L24.0326 3.51938C23.6127 3.93928 23.4398 4.64322 23.6003 5.21132L23.9708 6.47101C24.0079 6.60686 23.9708 6.90326 23.8844 7.01441L22.6 8.85455C22.2666 9.34854 22.2171 10.0772 22.4888 10.5959L22.7482 11.1022C23.0199 11.6086 23.6127 12.0038 24.1808 12.0532L25.8974 12.2014C25.8974 12.2014 25.9839 12.2014 26.0209 12.2014C26.5643 12.2014 27.1571 11.9173 27.4782 11.4974L28.7256 9.86724C28.7256 9.86724 28.9108 9.76844 28.9726 9.79314L33.8137 11.3616C34.1472 12.0161 34.4559 12.6954 34.7029 13.3993L30.9362 13.6587C30.6768 13.671 30.2075 13.6216 29.9482 13.5475L26.9966 12.6583C26.4285 12.4854 25.7245 12.6583 25.3046 13.0906L23.5756 14.8196C23.1928 15.2024 22.9581 15.8693 23.0075 16.4127L23.131 17.7094C23.1804 18.2158 23.4768 18.8209 23.8473 19.1667L24.4895 19.7719C24.9094 20.1671 25.6134 20.3523 26.1691 20.2041L27.6388 19.8089C27.6388 19.8089 27.8487 19.846 27.8858 19.8954L30.6274 23.8103C30.7139 23.9338 30.7756 24.2549 30.7509 24.4154L30.1211 27.3177C30.0099 27.824 30.1211 28.5033 30.4051 28.9479L31.2573 30.294C28.2069 33.6038 23.835 35.6786 18.9938 35.6786C17.6106 35.6786 16.2645 35.5057 14.9678 35.1846C15.116 35.0981 15.2394 34.9623 15.3382 34.8141L16.4127 33.0974C16.7214 32.6158 16.7585 31.8871 16.4991 31.3684L15.5235 29.4048C15.4864 29.3431 15.5235 29.1702 15.5605 29.1084L16.425 28.1204C16.7091 27.787 17.0302 27.2312 17.1537 26.8113L17.7465 24.8477C17.9441 24.1808 17.5736 23.4645 16.919 23.2298C15.8322 22.8593 14.5726 22.3901 14.0786 22.1554C14.0292 21.9084 13.9427 21.4885 13.7575 20.7722C13.634 20.2782 13.2388 19.7225 12.8189 19.4261L10.0648 17.5612C9.57084 17.2278 8.80514 17.2154 8.2988 17.5365L7.23671 18.2158C7.23671 18.2158 7.16261 18.1417 7.11321 18.117L6.19931 17.4007C6.19931 17.4007 6.12521 17.3389 6.08816 17.3019L7.6813 12.9053L9.34854 13.3376C10.0154 13.5105 10.7317 13.1153 10.9293 12.4607L11.7568 9.80549C11.7938 9.68199 11.9914 9.48439 12.1149 9.44734L14.2762 8.7434C14.6467 8.6199 14.906 8.36055 15.0048 8.01475C15.1036 7.66895 15.0048 7.31081 14.7578 7.01441L12.0779 3.86518C12.7201 3.56878 13.387 3.30943 14.0662 3.09949M19.0062 2.35849C19.2285 2.35849 19.4631 2.35849 19.6854 2.37084L17.7712 4.64322C17.6847 4.74202 17.5736 4.80377 17.4624 4.80377C17.3636 4.81612 17.2401 4.75437 17.1537 4.64322L15.4864 2.72899C16.6226 2.48199 17.7959 2.35849 18.9938 2.35849M32.7887 9.66964L29.3801 8.55815C28.7873 8.3729 28.0587 8.5952 27.6758 9.08919L26.4285 10.7194C26.3544 10.8182 26.1197 10.917 26.0086 10.9046L24.2919 10.7564C24.1684 10.7564 23.9585 10.6082 23.9091 10.4971L23.6497 9.99074C23.6003 9.90429 23.6127 9.69434 23.6744 9.60789L24.9588 7.76775C25.2676 7.32316 25.3787 6.61921 25.2305 6.08816L24.86 4.82847C24.8353 4.72967 24.8847 4.51973 24.9588 4.44563L25.6751 3.72933C28.565 5.00137 31.035 7.06381 32.801 9.64494M32.1588 29.2319L31.529 28.2316C31.4425 28.0957 31.3808 27.7499 31.4178 27.5894L32.0477 24.6871C32.1588 24.1684 32.023 23.4768 31.7142 23.0446L28.9849 19.1297C28.6268 18.6233 27.9105 18.364 27.3177 18.5245L25.848 18.9197C25.7369 18.9444 25.5022 18.8827 25.4158 18.8086L24.7736 18.2034C24.6377 18.0799 24.4772 17.7465 24.4648 17.5612L24.329 16.2645C24.3166 16.1163 24.4154 15.8322 24.5142 15.7334L26.2432 14.0045C26.3173 13.9304 26.5273 13.881 26.6261 13.9057L29.5777 14.7949C29.9852 14.9184 30.6151 14.9925 31.035 14.9554L35.1105 14.6714C35.481 16.0422 35.6786 17.4871 35.6786 18.9815C35.6786 22.8346 34.3571 26.3791 32.1588 29.2072M14.3503 29.9605L15.3259 31.9242C15.3753 32.023 15.3629 32.27 15.3012 32.3688L14.3626 33.8755L10.4724 29.59C10.3242 29.4172 10.1266 29.0467 10.0772 28.8244L9.39794 25.7616C9.29914 25.3046 8.97804 24.7118 8.6446 24.3907L7.61955 23.3657C7.52075 23.2669 7.42195 22.9828 7.4343 22.847L7.79245 19.6731C7.79245 19.5866 7.79245 19.4878 7.79245 19.389L9.00274 18.6233C9.07684 18.5739 9.26209 18.5863 9.32384 18.6233L12.0779 20.5005C12.2261 20.5993 12.436 20.8957 12.4731 21.0686C12.6213 21.6614 12.7942 22.4024 12.8065 22.5259C12.8065 23.0199 12.8065 23.2051 16.4744 24.4401L15.8816 26.4038C15.8075 26.6384 15.5852 27.0336 15.4247 27.2189L14.5602 28.2069C14.165 28.6638 14.0662 29.4172 14.3379 29.9605M18.9938 36.9753C24.4031 36.9753 29.2566 34.5794 32.554 30.788L32.6281 30.7015C35.3328 27.5523 36.9753 23.4645 36.9753 18.9938C36.9753 15.9434 36.2096 13.0659 34.8635 10.5465L34.8264 10.4847C32.8504 6.82916 29.6518 3.92693 25.7863 2.34614C25.7616 2.34614 25.7369 2.32144 25.6998 2.30909C23.625 1.4693 21.3527 1 18.9815 1C17.2895 1 15.6593 1.23465 14.1033 1.67925C14.0786 1.67925 14.0539 1.6916 14.0292 1.70395C8.5705 3.27238 4.14923 7.38491 2.16089 12.6583C2.16089 12.683 2.13619 12.6954 2.13619 12.7201C1.40755 14.6837 1 16.7955 1 19.0062C1 28.9232 9.07684 37 18.9938 37" fill="currentcolor"/>
<path d="M2.92659 14.5602L4.40858 17.2896C4.47033 17.4007 4.55677 17.5366 4.65557 17.6601C4.70497 17.87 4.84082 18.0552 5.06312 18.1417C5.17427 18.2528 5.27307 18.3516 5.37187 18.4257L6.28576 19.142C6.37221 19.2161 6.47101 19.4384 6.45866 19.5496L6.10051 22.7235C6.03876 23.2669 6.27341 23.9338 6.65626 24.329L7.6813 25.354C7.8295 25.5022 8.0271 25.8604 8.0765 26.0827L8.75574 29.1455C8.85454 29.5901 9.16329 30.1829 9.45969 30.5163L13.2388 34.6659C6.87856 32.3194 2.32144 26.1815 2.32144 19.0062C2.32144 17.4625 2.53139 15.9805 2.92659 14.5602ZM10.8676 4.458L13.5228 7.57017L11.7074 8.16297C11.1763 8.33587 10.67 8.85456 10.5094 9.38561L9.69434 12.0408L8.0271 11.6086C7.3602 11.4357 6.65626 11.8062 6.42161 12.4484L5.18662 15.9064L3.51938 12.8559C4.93962 9.28681 7.5578 6.32283 10.8799 4.458H10.8676ZM14.0662 3.0748L16.1533 5.48304C16.4868 5.87823 16.9684 6.10053 17.4624 6.10053C17.9564 6.10053 18.4381 5.86589 18.7715 5.47069L21.2786 2.49436C22.3283 2.64256 23.341 2.87721 24.3166 3.21065L24.0202 3.5194C23.6003 3.9393 23.4274 4.64324 23.588 5.21134L23.9585 6.47103C23.9955 6.60688 23.9585 6.90328 23.872 7.01443L22.5876 8.85456C22.2542 9.34856 22.2048 10.0772 22.4765 10.5959L22.7358 11.1022C23.0075 11.6086 23.6003 12.0038 24.1684 12.0532L25.8851 12.2014C25.8851 12.2014 25.9715 12.2014 26.0086 12.2014C26.552 12.2014 27.1448 11.9173 27.4659 11.4974L28.7132 9.86726C28.7132 9.86726 28.8985 9.76846 28.9602 9.79316L33.8014 11.3616C34.1348 12.0161 34.4436 12.6954 34.6906 13.3993L30.9238 13.6587C30.6645 13.671 30.1952 13.6216 29.9358 13.5475L26.9842 12.6583C26.4161 12.4854 25.7122 12.6583 25.2923 13.0906L23.5633 14.8196C23.1804 15.2024 22.9458 15.8693 22.9952 16.4127L23.1187 17.7095C23.1681 18.2158 23.4645 18.8209 23.835 19.1667L24.4772 19.7719C24.8971 20.1671 25.601 20.3523 26.1568 20.2041L27.6264 19.8089C27.6264 19.8089 27.8364 19.846 27.8734 19.8954L30.6151 23.8103C30.7015 23.9338 30.7633 24.2549 30.7386 24.4155L30.1087 27.3177C29.9976 27.824 30.1087 28.5033 30.3928 28.9479L31.2449 30.294C28.1945 33.6038 23.8226 35.6786 18.9815 35.6786C17.5983 35.6786 16.2521 35.5057 14.9554 35.1846C15.1036 35.0981 15.2271 34.9623 15.3259 34.8141L16.4003 33.0974C16.7091 32.6158 16.7461 31.8872 16.4868 31.3685L15.5111 29.4048C15.4741 29.3431 15.5111 29.1702 15.5482 29.1084L16.4127 28.1204C16.6967 27.787 17.0178 27.2312 17.1413 26.8113L17.7341 24.8477C17.9317 24.1808 17.5612 23.4645 16.9067 23.2299C15.8199 22.8594 14.5602 22.3901 14.0662 22.1554C14.0168 21.9084 13.9304 21.4885 13.7451 20.7722C13.6216 20.2782 13.2264 19.7225 12.8065 19.4261L10.0525 17.5613C9.55849 17.2278 8.79279 17.2155 8.28645 17.5366L7.22436 18.2158C7.22436 18.2158 7.15026 18.1417 7.10086 18.117L6.18696 17.4007C6.18696 17.4007 6.11286 17.339 6.07581 17.3019L7.66895 12.9053L9.33619 13.3376C10.0031 13.5105 10.7194 13.1153 10.917 12.4607L11.7444 9.80551C11.7815 9.68201 11.9791 9.48441 12.1026 9.44736L14.2638 8.74341C14.6343 8.61992 14.8937 8.36057 14.9925 8.01477C15.0912 7.66897 14.9925 7.31083 14.7455 7.01443L12.0655 3.8652C12.7077 3.5688 13.3746 3.30945 14.0539 3.0995L14.0662 3.0748ZM19.0062 2.33381C19.2285 2.33381 19.4631 2.33381 19.6854 2.34616L17.7712 4.61854C17.6847 4.71734 17.5736 4.77909 17.4624 4.77909C17.3636 4.79144 17.2401 4.72969 17.1537 4.61854L15.4864 2.70431C16.6226 2.45731 17.7959 2.33381 18.9938 2.33381H19.0062ZM32.801 9.64496L29.3924 8.53347C28.7997 8.34822 28.071 8.57052 27.6882 9.06451L26.4408 10.6947C26.3667 10.7935 26.1321 10.8923 26.0209 10.8799L24.3043 10.7318C24.1808 10.7318 23.9708 10.5836 23.9214 10.4724L23.6621 9.96606C23.6127 9.87961 23.625 9.66966 23.6868 9.58321L24.9712 7.74307C25.2799 7.29847 25.3911 6.59453 25.2429 6.06348L24.8724 4.80379C24.8477 4.70499 24.8971 4.49504 24.9712 4.42095L25.6875 3.70465C28.5774 4.97669 31.0473 7.03913 32.8134 9.62026L32.801 9.64496ZM32.1588 29.2319L31.529 28.2316C31.4425 28.0957 31.3808 27.7499 31.4178 27.5894L32.0477 24.6872C32.1588 24.1685 32.023 23.4769 31.7142 23.0446L28.9849 19.1297C28.6268 18.6233 27.9105 18.364 27.3177 18.5245L25.848 18.9197C25.7369 18.9444 25.5022 18.8827 25.4158 18.8086L24.7736 18.2034C24.6377 18.0799 24.4772 17.7465 24.4648 17.5613L24.329 16.2645C24.3166 16.1163 24.4154 15.8323 24.5142 15.7335L26.2432 14.0045C26.3173 13.9304 26.5273 13.881 26.6261 13.9057L29.5777 14.7949C29.9852 14.9184 30.6151 14.9925 31.035 14.9554L35.1105 14.6714C35.481 16.0422 35.6786 17.4872 35.6786 18.9815C35.6786 22.8347 34.3571 26.3791 32.1588 29.2072V29.2319ZM14.3503 29.9853L15.3259 31.9489C15.3753 32.0477 15.3629 32.2947 15.3012 32.3935L14.3626 33.9002L10.4724 29.6148C10.3242 29.4419 10.1266 29.0714 10.0772 28.8491L9.39794 25.7863C9.29914 25.3293 8.97804 24.7366 8.6446 24.4155L7.61955 23.3904C7.52075 23.2916 7.42195 23.0076 7.4343 22.8717L7.79245 19.6978C7.79245 19.6113 7.79245 19.5125 7.79245 19.4137L9.00274 18.648C9.07684 18.5986 9.26209 18.611 9.32384 18.648L12.0779 20.5252C12.2261 20.624 12.436 20.9204 12.4731 21.0933C12.6213 21.6861 12.7942 22.4271 12.8065 22.5506C12.8065 23.0446 12.8065 23.2299 16.4744 24.4649L15.8816 26.4285C15.8075 26.6631 15.5852 27.0583 15.4247 27.2436L14.5602 28.2316C14.165 28.6885 14.0662 29.4419 14.3379 29.9853H14.3503ZM19.0062 37C24.4154 37 29.2689 34.6041 32.5664 30.8127L32.6405 30.7263C35.3451 27.577 36.9876 23.4892 36.9876 19.0185C36.9876 15.9681 36.2219 13.0906 34.8758 10.5712L34.8388 10.5095C32.8628 6.85388 29.6641 3.95165 25.7986 2.37086C25.7739 2.37086 25.7492 2.34616 25.7122 2.33381C23.6374 1.49402 21.365 1.02472 18.9938 1.02472C17.3019 1.02472 15.6717 1.25937 14.1156 1.70396C14.0909 1.70396 14.0662 1.71631 14.0415 1.72866C8.5705 3.2724 4.14923 7.38492 2.16089 12.6583C2.16089 12.683 2.13619 12.6954 2.13619 12.7201C1.40755 14.6837 1 16.7956 1 19.0062C1 28.9232 9.07684 37 18.9938 37H19.0062Z" stroke="currentcolor" stroke-width="0.5" stroke-miterlimit="10"/>
</svg>
