<svg width="8" height="12" viewBox="0 0 8 12" fill="none" xmlns="http://www.w3.org/2000/svg">
<path d="M3.584 11.938V10.706C2.94 10.65 2.338 10.4913 1.778 10.23C1.218 9.95933 0.728 9.59533 0.308 9.138L0.952 8.452C1.69867 9.25467 2.576 9.726 3.584 9.866V6.422L3.094 6.324C2.16067 6.11867 1.498 5.83867 1.106 5.484C0.714 5.12 0.518 4.60667 0.518 3.944C0.518 3.44933 0.648667 3.01533 0.91 2.642C1.17133 2.26867 1.53067 1.97933 1.988 1.774C2.45467 1.55933 2.98667 1.452 3.584 1.452V0.262H4.298V1.48C4.83933 1.54533 5.36667 1.68067 5.88 1.886C6.40267 2.082 6.888 2.34333 7.336 2.67L6.804 3.454C6.37467 3.15533 5.95 2.91733 5.53 2.74C5.11933 2.56267 4.70867 2.44133 4.298 2.376V5.61L4.774 5.708C5.782 5.932 6.49133 6.226 6.902 6.59C7.31267 6.954 7.518 7.46733 7.518 8.13C7.518 8.62467 7.38267 9.06333 7.112 9.446C6.84133 9.82867 6.46333 10.132 5.978 10.356C5.49267 10.58 4.93267 10.706 4.298 10.734V11.938H3.584ZM3.584 5.47V2.32C2.95867 2.32933 2.45 2.474 2.058 2.754C1.67533 3.034 1.484 3.40267 1.484 3.86C1.484 4.14933 1.54 4.392 1.652 4.588C1.77333 4.784 1.96933 4.94733 2.24 5.078C2.51067 5.20867 2.884 5.32533 3.36 5.428L3.584 5.47ZM4.298 9.894C4.95133 9.85667 5.48333 9.684 5.894 9.376C6.314 9.05867 6.524 8.65733 6.524 8.172C6.524 7.88267 6.46333 7.64467 6.342 7.458C6.22067 7.262 6.01533 7.09867 5.726 6.968C5.43667 6.828 5.03067 6.70667 4.508 6.604L4.298 6.562V9.894Z" fill="#667085"/>
</svg>
